<?xml version="1.0" standalone="no"?>
<!DOCTYPE svg PUBLIC "-//W3C//DTD SVG 1.1//EN" "http://www.w3.org/Graphics/SVG/1.1/DTD/svg11.dtd" >
<svg>
<metadata>
Created by FontForge 20090914 at Fri Feb  7 16:03:14 2014
 By www-data
</metadata>
<defs>
<font id="PragmaticaC" horiz-adv-x="580" >
  <font-face 
    font-family="PragmaticaC"
    font-weight="400"
    font-stretch="normal"
    units-per-em="1000"
    panose-1="2 0 5 3 5 0 0 2 0 4"
    ascent="800"
    descent="-200"
    x-height="508"
    cap-height="700"
    bbox="-16 -224 1245 878"
    underline-thickness="50"
    underline-position="-50"
    unicode-range="U+0020-U+2122"
  />
<missing-glyph horiz-adv-x="233" 
 />
    <glyph glyph-name=".notdef" horiz-adv-x="233" 
 />
    <glyph glyph-name="space" unicode=" " horiz-adv-x="233" 
 />
    <glyph glyph-name="space" unicode="&#xa0;" horiz-adv-x="233" 
 />
    <glyph glyph-name="exclam" unicode="!" horiz-adv-x="311" 
d="M106 109h99v-109h-99v109zM205 700v-269l-25 -230h-49l-25 230v269h99z" />
    <glyph glyph-name="quotedbl" unicode="&#x22;" horiz-adv-x="420" 
d="M330 508h-52l-40 192h132zM142 508h-52l-40 192h132z" />
    <glyph glyph-name="numbersign" unicode="#" horiz-adv-x="701" 
d="M436 442h-143l-28 -179h143zM369 10l26 168h-143l-26 -168h-68l26 168h-134l13 85h134l28 179h-134l13 85h134l26 167h68l-26 -167h143l26 167h68l-26 -167h134l-13 -85h-134l-28 -179h134l-13 -85h-134l-26 -168h-68z" />
    <glyph glyph-name="dollar" unicode="$" horiz-adv-x="611" 
d="M284 646c-10.667 0 -23.334 -1.49902 -38.001 -4.49902s-28.5 -8.83301 -41.5 -17.5s-24 -20.834 -33 -36.501s-13.5 -36.167 -13.5 -61.5c0 -33.333 10.333 -59.333 31 -78s52.334 -32 95.001 -40v238zM337 57.001c21.333 -0.666992 40.167 2.83496 56.5 10.502
s30.166 17.667 41.499 30s19.833 26.833 25.5 43.5s8.5 33.667 8.5 51c0 22.667 -4.5 41.5 -13.5 56.5s-20.167 27.167 -33.5 36.5s-27.666 16.166 -42.999 20.499s-29.333 7.16602 -42 8.49902v-257zM142.001 208.003c1.33301 -30 7.00293 -54.6719 17.0029 -74.0049
s22 -34.666 36 -45.999s28.833 -19.166 44.5 -23.499s30.5 -6.83301 44.5 -7.5v266c-47.333 10 -85 22.167 -113 36.5s-49.333 30.166 -64 47.499s-24.334 35.666 -29.001 54.999s-7 39.666 -7 60.999c0 40 7.5 72.333 22.5 97s33.333 43.834 55 57.501
s44.834 22.834 69.501 27.501s46.667 7 66 7v65h53v-65c17.333 -0.666992 37.666 -3.5 60.999 -8.5s45.333 -14.167 66 -27.5s38 -31.666 52 -54.999s20.333 -53.666 19 -90.999h-86c0 14.667 -2.66699 29 -8 43s-12.833 26.333 -22.5 37s-21.5 19.334 -35.5 26.001
s-29.333 10 -46 10v-247c50 -8.66699 89.667 -21.167 119 -37.5s51.5 -34.166 66.5 -53.499s24.667 -39.333 29 -60s6.5 -39.334 6.5 -56.001c0 -44 -8.33301 -79.167 -25 -105.5s-36.834 -46.666 -60.501 -60.999s-48 -24 -73 -29s-45.833 -7.83301 -62.5 -8.5v-81h-53v81
c-74 3.33301 -129.833 22.333 -167.5 57s-58.834 89 -63.501 163h89z" />
    <glyph glyph-name="percent" unicode="%" horiz-adv-x="911" 
d="M594 192c0 -11.333 1.16699 -25.5 3.5 -42.5s7 -33.167 14 -48.5s17 -28.5 30 -39.5s30.5 -16.5 52.5 -16.5s39.5 5.5 52.5 16.5s23 24.167 30 39.5s11.667 31.5 14 48.5s3.5 31.167 3.5 42.5c0 28.667 -3.33301 52.5 -10 71.5s-15 34.167 -25 45.5
s-20.833 19.166 -32.5 23.499s-22.5 6.5 -32.5 6.5s-20.833 -2.16699 -32.5 -6.5s-22.5 -12.166 -32.5 -23.499s-18.333 -26.5 -25 -45.5s-10 -42.833 -10 -71.5zM530 192c0 41.333 5.99805 75 17.998 101s26.5 46.333 43.5 61s35 24.667 54 30s35.167 8 48.5 8
s29.5 -2.66699 48.5 -8s37 -15.333 54 -30s31.5 -35 43.5 -61s18 -59.667 18 -101c0 -18 -2.33301 -38.5 -7 -61.5s-13 -44.833 -25 -65.5s-28.667 -38 -50 -52s-48.666 -21 -81.999 -21s-60.666 7 -81.999 21s-38 31.333 -50 52s-20.333 42.5 -25 65.5s-7 43.5 -7 61.5z
M116.998 508c0 -11.333 1.16699 -25.5 3.5 -42.5s7 -33.167 14 -48.5s17 -28.5 30 -39.5s30.5 -16.5 52.5 -16.5s39.5 5.5 52.5 16.5s23 24.167 30 39.5s11.667 31.5 14 48.5s3.5 31.167 3.5 42.5c0 28.667 -3.33301 52.5 -10 71.5s-15 34.167 -25 45.5
s-20.833 19.166 -32.5 23.499s-22.5 6.5 -32.5 6.5s-20.833 -2.16699 -32.5 -6.5s-22.5 -12.166 -32.5 -23.499s-18.333 -26.5 -25 -45.5s-10 -42.833 -10 -71.5zM52.998 508c0 41.333 5.99805 75 17.998 101s26.5 46.333 43.5 61s35 24.667 54 30s35.167 8 48.5 8
s29.5 -2.66699 48.5 -8s37 -15.333 54 -30s31.5 -35 43.5 -61s18 -59.667 18 -101c0 -18 -2.33301 -38.5 -7 -61.5s-13 -44.833 -25 -65.5s-28.667 -38 -50 -52s-48.666 -21 -81.999 -21s-60.666 7 -81.999 21s-38 31.333 -50 52s-20.333 42.5 -25 65.5s-7 43.5 -7 61.5z
M648.996 700h71l-454 -700h-71z" />
    <glyph glyph-name="ampersand" unicode="&#x26;" horiz-adv-x="683" 
d="M317 438c26 9.33301 48.165 24.667 66.498 46s27.5 47 27.5 77c0 19.333 -6.83301 36.333 -20.5 51s-31.5 22 -53.5 22c-9.33301 0 -18.666 -1.33301 -27.999 -4s-17.833 -7 -25.5 -13s-14 -13.833 -19 -23.5s-7.5 -21.5 -7.5 -35.5c0 -24 6.33301 -45.5 19 -64.5
s26.334 -37.5 41.001 -55.5zM289.998 348.001c-25.333 -10 -46.168 -21.333 -62.501 -34s-29.333 -26 -39 -40s-16.334 -28.333 -20.001 -43s-5.5 -29 -5.5 -43c0 -15.333 2.66699 -30.833 8 -46.5s13.833 -30 25.5 -43s26.334 -23.667 44.001 -32
s38.834 -12.5 63.501 -12.5c32.667 0 63.167 7.16699 91.5 21.5s50.833 35.5 67.5 63.5zM620.996 306.001c-5.33301 -30.667 -11.8359 -58.8281 -19.5029 -84.4951s-20.5 -52.167 -38.5 -79.5l120 -142h-105l-69 82c-11.333 -18 -25.166 -33.333 -41.499 -46
s-34.166 -23.334 -53.499 -32.001s-39.333 -15 -60 -19s-41.334 -6 -62.001 -6c-40 0 -74 6.33301 -102 19s-50.667 29 -68 49s-30 42.333 -38 67s-12 49 -12 73c0 53.333 14.667 96.666 44 129.999s72 62.666 128 87.999c-16 18.667 -28.667 35.834 -38 51.501
s-16.333 29.667 -21 42s-7.5 23.333 -8.5 33s-1.5 17.834 -1.5 24.501c0 22.667 4.33301 43 13 61s20.334 33.167 35.001 45.5s31.834 21.666 51.501 27.999s40.834 9.5 63.501 9.5c25.333 0 47.666 -4 66.999 -12s35.333 -18.5 48 -31.5s22.167 -28 28.5 -45
s9.5 -34.5 9.5 -52.5c0 -22 -4.16699 -42.167 -12.5 -60.5s-18.833 -34.833 -31.5 -49.5s-26.667 -27.334 -42 -38.001s-30.333 -19.334 -45 -26.001l153 -182c6.66699 10.667 12 23.167 16 37.5s8.33301 36.166 13 65.499h79z" />
    <glyph glyph-name="quotesingle" unicode="'" horiz-adv-x="232" 
d="M142 508h-52l-40 192h132z" />
    <glyph glyph-name="parenleft" unicode="(" horiz-adv-x="365" 
d="M282 700c-45.333 -88 -77 -168.999 -95 -242.999s-27 -140.333 -27 -199c0 -37.333 3.16699 -75.166 9.5 -113.499s15 -76.5 26 -114.5s23.833 -75 38.5 -111s30.667 -70.333 48 -103h-66c-30.667 52 -55.5 98.167 -74.5 138.5s-33.667 77.666 -44 111.999
s-17.333 66.833 -21 97.5s-5.5 62 -5.5 94s1.83301 63.333 5.5 94s10.667 63.167 21 97.5s25 71.666 44 111.999s43.833 86.5 74.5 138.5h66z" />
    <glyph glyph-name="parenright" unicode=")" horiz-adv-x="365" 
d="M83 -184c29.333 56.667 52.166 108.333 68.499 155s28.5 88.5 36.5 125.5s12.833 69 14.5 96s2.5 48.833 2.5 65.5c0 14.667 -0.833008 35.167 -2.5 61.5s-6.5 58.333 -14.5 96s-20.167 80.334 -36.5 128.001s-39.166 99.834 -68.499 156.501h66
c32.667 -52 58.5 -99.667 77.5 -143s33.5 -83 43.5 -119s16.5 -68.833 19.5 -98.5s4.5 -56.834 4.5 -81.501s-1.5 -51.834 -4.5 -81.501s-9.5 -62.667 -19.5 -99s-24.5 -76 -43.5 -119s-44.833 -90.5 -77.5 -142.5h-66z" />
    <glyph glyph-name="asterisk" unicode="*" horiz-adv-x="465" 
d="M153 403l-40 30l78 108l-125 40l16 47l126 -40v132h50v-132l125 40l16 -47l-124 -40l78 -108l-41 -30l-79 108z" />
    <glyph glyph-name="plus" unicode="+" horiz-adv-x="600" 
d="M269 386v219h62v-219h219v-62h-219v-219h-62v219h-219v62h219z" />
    <glyph glyph-name="comma" unicode="," horiz-adv-x="311" 
d="M205 109v-139.998c0 -20 -3.33301 -37 -10 -51s-15 -25.5 -25 -34.5s-20.667 -16 -32 -21s-22 -8.5 -32 -10.5v55c14 1.33301 25.833 8.16602 35.5 20.499s14.5 26.166 14.5 41.499v31h-50v109h99z" />
    <glyph glyph-name="hyphen" unicode="-" horiz-adv-x="422" 
d="M79 310h264v-85h-264v85z" />
    <glyph glyph-name="hyphen" unicode="&#xad;" horiz-adv-x="422" 
d="M79 310h264v-85h-264v85z" />
    <glyph glyph-name="period" unicode="." horiz-adv-x="311" 
d="M106 109h99v-109h-99v109z" />
    <glyph glyph-name="slash" unicode="/" horiz-adv-x="420" 
d="M357 700h63l-357 -885h-63z" />
    <glyph glyph-name="zero" unicode="0" 
d="M290 58c28 0 51.667 7.83301 71 23.5s35 36.667 47 63s20.667 57.166 26 92.499s8 73 8 113s-2.66699 77.667 -8 113s-14 66.166 -26 92.499s-27.667 47.333 -47 63s-43 23.5 -71 23.5s-51.667 -7.83301 -71 -23.5s-35 -36.667 -47 -63s-20.667 -57.166 -26 -92.499
s-8 -73 -8 -113s2.66699 -77.667 8 -113s14 -66.166 26 -92.499s27.667 -47.333 47 -63s43 -23.5 71 -23.5zM290 -21c-8.66699 0 -20.667 0.833008 -36 2.5s-32.166 6.33398 -50.499 14.001s-36.833 19.167 -55.5 34.5s-35.667 36.666 -51 63.999
s-27.833 61.833 -37.5 103.5s-14.5 92.5 -14.5 152.5s4.83301 110.833 14.5 152.5s22.167 76.167 37.5 103.5s32.333 48.666 51 63.999s37.167 26.833 55.5 34.5s35.166 12.334 50.499 14.001s27.333 2.5 36 2.5s20.667 -0.833008 36 -2.5s32.166 -6.33398 50.499 -14.001
s36.833 -19.167 55.5 -34.5s35.667 -36.666 51 -63.999s27.833 -61.833 37.5 -103.5s14.5 -92.5 14.5 -152.5s-4.83301 -110.833 -14.5 -152.5s-22.167 -76.167 -37.5 -103.5s-32.333 -48.666 -51 -63.999s-37.167 -26.833 -55.5 -34.5s-35.166 -12.334 -50.499 -14.001
s-27.333 -2.5 -36 -2.5z" />
    <glyph glyph-name="one" unicode="1" 
d="M130 575l20.999 0.000976562c20.667 0 40.667 3 60 9s36.5 14.333 51.5 25s27.333 23.667 37 39s15.834 32.666 18.501 51.999h66v-700h-94v526h-160v49z" />
    <glyph glyph-name="two" unicode="2" 
d="M531 0l-474 -0.00488281c0 42 5.83301 78.333 17.5 109s28.167 58 49.5 82s46.5 46 75.5 66s60.5 40.667 94.5 62l47 30c16.667 10.667 32.167 23.334 46.5 38.001s26.166 31.834 35.499 51.501s14 42.834 14 69.501c0 44 -13 77.333 -39 100s-60 34 -102 34
c-44.667 0 -80 -12.667 -106 -38s-39 -59 -39 -101v-26h-92v21c0 16 2.5 36.5 7.5 61.5s15.833 49.5 32.5 73.5s40.834 44.667 72.501 62s74.167 26 127.5 26c36 0 68.333 -4.83301 97 -14.5s53.167 -23.5 73.5 -41.5s36 -40.167 47 -66.5s16.5 -56.166 16.5 -89.499
c0 -32.667 -4 -60.667 -12 -84s-21 -45 -39 -65s-41.333 -39.833 -70 -59.5l-104 -68.5c-47.333 -30 -82 -56.667 -104 -80s-36.333 -47.666 -43 -72.999h370v-79z" />
    <glyph glyph-name="three" unicode="3" 
d="M130 213c0.666992 -4 1.16797 -7.83008 1.50098 -11.4971s0.833008 -7.5 1.5 -11.5c1.33301 -8 3.83301 -19.667 7.5 -35s10.667 -30.5 21 -45.5s24.833 -28 43.5 -39s43.334 -16.5 74.001 -16.5c36 0 64.667 5.66699 86 17s37.333 24.833 48 40.5
s17.5 31.834 20.5 48.501s4.5 30.667 4.5 42c0 38.667 -11.5 69.334 -34.5 92.001s-54.167 34 -93.5 34h-72v76h28c7.33301 0 19.5 0.666992 36.5 2s34.167 5.83301 51.5 13.5s32.5 19.667 45.5 36s19.5 39.5 19.5 69.5c0 14 -2 28.167 -6 42.5s-11.167 27.333 -21.5 39
s-24.5 21.167 -42.5 28.5s-40.667 11 -68 11c-8 0 -19.667 -1 -35 -3s-30.5 -8.16699 -45.5 -18.5s-28 -26.166 -39 -47.499s-16.5 -51.333 -16.5 -90h-87c0 10 0.5 22.833 1.5 38.5s4 32.167 9 49.5s12.333 34.666 22 51.999s22.834 33 39.501 47s37.667 25.333 63 34
s55.666 13 90.999 13c48.667 0 87.667 -7.5 117 -22.5s51.666 -32.667 66.999 -53s25.5 -41.333 30.5 -63s7.5 -39.5 7.5 -53.5c0 -38.667 -10.667 -71.834 -32 -99.501s-49 -46.167 -83 -55.5v-2c18 -2.66699 35 -8.33398 51 -17.001s30.333 -20.5 43 -35.5
s22.667 -32.833 30 -53.5s11 -44.334 11 -71.001c0 -34 -6 -64.5 -18 -91.5s-28.833 -49.667 -50.5 -68s-47.167 -32.333 -76.5 -42s-61.333 -14.5 -96 -14.5c-51.333 0 -92.666 7.83301 -123.999 23.5s-55.833 35.167 -73.5 58.5s-29.834 48.666 -36.501 75.999
s-10.334 52.666 -11.001 75.999h90z" />
    <glyph glyph-name="four" unicode="4" 
d="M353 241v336l-240 -336h240zM23 162v79l329 459h95v-459h110v-79h-110v-162h-94v162h-330z" />
    <glyph glyph-name="five" unicode="5" 
d="M138 179c1.33301 -11.333 4.50293 -24.3311 9.50293 -38.998s13 -28.334 24 -41.001s25.333 -23.334 43 -32.001s40.167 -13 67.5 -13c12 0 27.167 1.33301 45.5 4s36.166 9.66699 53.499 21s32.333 28.5 45 51.5s19 55.167 19 96.5c0 30.667 -4.5 56.667 -13.5 78
s-20.667 38.333 -35 51s-30.833 21.834 -49.5 27.501s-37.334 8.5 -56.001 8.5c-11.333 0 -23.833 -1.33301 -37.5 -4s-26.834 -6.5 -39.501 -11.5s-24.334 -11.333 -35.001 -19s-19 -16.5 -25 -26.5h-88l49 369h378v-79h-309l-28 -207c22 19.333 45.833 33 71.5 41
s54.5 12 86.5 12s61.5 -5.5 88.5 -16.5s50.167 -26.667 69.5 -47s34.333 -45.333 45 -75s16 -63.167 16 -100.5c0 -35.333 -5 -68 -15 -98s-25.167 -56.333 -45.5 -79s-46.333 -40.334 -78 -53.001s-69.167 -19 -112.5 -19c-45.333 0 -82.666 6.66699 -111.999 20
s-52.833 30 -70.5 50s-30.5 41.667 -38.5 65s-13 45 -15 65h92z" />
    <glyph glyph-name="six" unicode="6" 
d="M143 224c0 -22 3.16504 -43.1641 9.49805 -63.4971s15.833 -38.333 28.5 -54s28.834 -28.334 48.501 -38.001s42.834 -14.5 69.501 -14.5c26 0 48.167 4.83301 66.5 14.5s33.333 22.667 45 39s20.334 34.833 26.001 55.5s8.5 42 8.5 64c0 21.333 -3 41.666 -9 60.999
s-15.167 36.166 -27.5 50.499s-27.833 25.833 -46.5 34.5s-40.334 13 -65.001 13c-49.333 0 -87.333 -15 -114 -45s-40 -69 -40 -117zM440.998 546.003c-6 24.667 -14.9951 43.8311 -26.9951 57.498s-24.667 23.667 -38 30s-26.5 10 -39.5 11s-22.833 1.5 -29.5 1.5
c-36.667 0 -66.167 -8.33301 -88.5 -25s-39.5 -37.834 -51.5 -63.501s-20 -53.667 -24 -84s-6 -59.166 -6 -86.499h2c20.667 27.333 46.334 46.5 77.001 57.5s62 16.5 94 16.5s61.667 -5.33301 89 -16s51.166 -26 71.499 -46s36.166 -44.5 47.499 -73.5s17 -62.167 17 -99.5
c0 -36 -5.33301 -69.167 -16 -99.5s-26.334 -56.5 -47.001 -78.5s-45.834 -39 -75.501 -51s-63.5 -18 -101.5 -18c-38.667 0 -73.5 5.66699 -104.5 17s-57.333 30.833 -79 58.5s-38.334 64.834 -50.001 111.501s-17.5 105 -17.5 175c0 62 5.16699 114.667 15.5 158
s23.5 79 39.5 107s34 49.833 54 65.5s39.667 27.167 59 34.5s37.666 11.666 54.999 12.999s31 2 41 2s25.5 -1.16699 46.5 -3.5s42.833 -9.16602 65.5 -20.499s44 -28.666 64 -51.999s33.667 -56.333 41 -99h-84z" />
    <glyph glyph-name="seven" unicode="7" 
d="M34 700l510.997 0.00195312v-64c-23.333 -26 -44.333 -51.333 -63 -76s-35.667 -49.834 -51 -75.501s-29.5 -51.834 -42.5 -78.501s-25.5 -54.667 -37.5 -84c-11.333 -27.333 -21 -53.5 -29 -78.5s-15 -50.333 -21 -76s-11.167 -52.167 -15.5 -79.5
s-8.16602 -56.666 -11.499 -87.999h-100c6.66699 50.667 16.334 101.5 29.001 152.5s31 104.833 55 161.5c10.667 24.667 22.834 50.167 36.501 76.5s28.667 52.833 45 79.5s34 52.667 53 78s39.167 49.666 60.5 72.999h-419v79z" />
    <glyph glyph-name="eight" unicode="8" 
d="M290 54c16.667 0 33.668 2.83301 51.001 8.5s33 14.5 47 26.5s25.5 27.5 34.5 46.5s13.5 41.5 13.5 67.5c0 14.667 -2.16699 30 -6.5 46s-12 30.667 -23 44s-26 24.5 -45 33.5s-42.833 13.5 -71.5 13.5c-29.333 0 -53.333 -4.5 -72 -13.5s-33.5 -20.167 -44.5 -33.5
s-18.667 -28 -23 -44s-6.5 -31.333 -6.5 -46c0 -26 4.33301 -48.5 13 -67.5s20 -34.5 34 -46.5s29.667 -20.833 47 -26.5s34.666 -8.5 51.999 -8.5zM290.001 412c22.667 0 41.832 3.16699 57.499 9.5s28.5 15 38.5 26s17.167 23.5 21.5 37.5s6.5 29 6.5 45
c0 8.66699 -1.33301 19.667 -4 33s-8.33398 26.166 -17.001 38.499s-21.167 22.833 -37.5 31.5s-38.166 13 -65.499 13s-49.166 -4.33301 -65.499 -13s-28.833 -19.167 -37.5 -31.5s-14.334 -25.166 -17.001 -38.499s-4 -24.333 -4 -33c0 -16 2.16699 -31 6.5 -45
s11.5 -26.5 21.5 -37.5s22.833 -19.667 38.5 -26s34.834 -9.5 57.501 -9.5zM180.999 379c-32 11.333 -56.833 31.5 -74.5 60.5s-26.5 60.167 -26.5 93.5c0 18 3 38 9 60s16.833 42.5 32.5 61.5s37.167 34.833 64.5 47.5s62 19 104 19s76.667 -6.33301 104 -19
s48.833 -28.5 64.5 -47.5s26.5 -39.5 32.5 -61.5s9 -42 9 -60c0 -33.333 -8.83301 -64.5 -26.5 -93.5s-42.5 -49.167 -74.5 -60.5c20 -5.33301 37.833 -14 53.5 -26s29 -26 40 -42s19.333 -33.833 25 -53.5s8.5 -39.5 8.5 -59.5c0 -30 -4.66699 -58.333 -14 -85
s-23.666 -49.834 -42.999 -69.501s-43.833 -35.334 -73.5 -47.001s-64.834 -17.5 -105.501 -17.5s-75.834 5.83301 -105.501 17.5s-54.167 27.334 -73.5 47.001s-33.666 42.834 -42.999 69.501s-14 55 -14 85c0 20 2.83301 39.833 8.5 59.5s14 37.5 25 53.5s24.333 30 40 42
s33.5 20.667 53.5 26z" />
    <glyph glyph-name="nine" unicode="9" 
d="M436 476c0 22 -3.16504 43.165 -9.49805 63.498s-15.833 38.333 -28.5 54s-28.834 28.334 -48.501 38.001s-42.834 14.5 -69.501 14.5c-26 0 -48.167 -4.83301 -66.5 -14.5s-33.333 -22.667 -45 -39s-20.334 -34.833 -26.001 -55.5s-8.5 -42 -8.5 -64
c0 -21.333 3 -41.666 9 -60.999s15.167 -36.333 27.5 -51s27.833 -26.167 46.5 -34.5s40.334 -12.5 65.001 -12.5c49.333 0 87.333 15 114 45s40 69 40 117zM138.002 153.998c6 -24.667 14.998 -43.8359 26.998 -57.5029s24.667 -23.667 38 -30s26.333 -10 39 -11
s22.667 -1.5 30 -1.5c36.667 0 66.167 8.33301 88.5 25s39.5 37.667 51.5 63s20 53.333 24 84s6 59.667 6 87h-2c-20.667 -27.333 -46.334 -46.5 -77.001 -57.5s-62 -16.5 -94 -16.5s-61.667 5.33301 -89 16s-51.166 26 -71.499 46s-36.166 44.5 -47.499 73.5
s-17 62.167 -17 99.5c0 36 5.33301 69.167 16 99.5s26.334 56.5 47.001 78.5s45.834 39 75.501 51s63.5 18 101.5 18c20 0 40.167 -1.5 60.5 -4.5s39.666 -9.16699 57.999 -18.5s35.666 -22.166 51.999 -38.499s30.333 -38 42 -65s21 -59.667 28 -98
s10.5 -84.166 10.5 -137.499c0 -55.333 -4 -103.166 -12 -143.499s-18.667 -74.666 -32 -102.999s-29 -51.166 -47 -68.499s-36.667 -30.833 -56 -40.5s-39.166 -16.167 -59.499 -19.5s-39.5 -5 -57.5 -5c-10 0 -25.5 1.16699 -46.5 3.5s-42.833 9.16602 -65.5 20.499
s-44 28.666 -64 51.999s-33.667 56.333 -41 99h84z" />
    <glyph glyph-name="colon" unicode=":" horiz-adv-x="311" 
d="M106 109h99v-109h-99v109zM106 508h99v-109h-99v109z" />
    <glyph glyph-name="semicolon" unicode=";" horiz-adv-x="311" 
d="M205 109v-139.998c0 -20 -3.33301 -37 -10 -51s-15 -25.5 -25 -34.5s-20.667 -16 -32 -21s-22 -8.5 -32 -10.5v55c14 1.33301 25.833 8.16602 35.5 20.499s14.5 26.166 14.5 41.499v31h-50v109h99zM106 508.002h99v-109h-99v109z" />
    <glyph glyph-name="semicolon" unicode="&#x37e;" horiz-adv-x="311" 
d="M205 109v-139.998c0 -20 -3.33301 -37 -10 -51s-15 -25.5 -25 -34.5s-20.667 -16 -32 -21s-22 -8.5 -32 -10.5v55c14 1.33301 25.833 8.16602 35.5 20.499s14.5 26.166 14.5 41.499v31h-50v109h99zM106 508.002h99v-109h-99v109z" />
    <glyph glyph-name="less" unicode="&#x3c;" horiz-adv-x="669" 
d="M555 651l30 -54l-449 -255l449 -255l-30 -54l-495 285v48z" />
    <glyph glyph-name="equal" unicode="=" horiz-adv-x="600" 
d="M550 276v-62h-500v62h500zM550 476v-62h-500v62h500z" />
    <glyph glyph-name="greater" unicode="&#x3e;" horiz-adv-x="669" 
d="M114 33l-30 54l449 255l-449 255l30 54l495 -285v-48z" />
    <glyph glyph-name="question" unicode="?" horiz-adv-x="548" 
d="M53 489c-1.33301 28.667 1.16406 56.668 7.49707 84.001s17.833 51.666 34.5 72.999s39.834 38.5 69.501 51.5s67.5 19.5 113.5 19.5c32.667 0 62.334 -4 89.001 -12s49.5 -19.667 68.5 -35s33.667 -34.333 44 -57s15.5 -48.334 15.5 -77.001
c0 -19.333 -2.16699 -36.833 -6.5 -52.5s-10.666 -30.5 -18.999 -44.5s-19 -27.5 -32 -40.5s-28.167 -26.833 -45.5 -41.5c-10.667 -8.66699 -21 -17.5 -31 -26.5s-19 -18.833 -27 -29.5s-14.5 -22.167 -19.5 -34.5s-7.5 -26.5 -7.5 -42.5v-21h-73
c-1.33301 10.667 -1.66602 22.5 -0.999023 35.5s2.5 26.167 5.5 39.5s7.66699 26.5 14 39.5s15.166 25.5 26.499 37.5c12.667 13.333 26.667 26.333 42 39s29.333 25.667 42 39s23.334 28 32.001 44s13 34.333 13 55c0 10.667 -2 22.5 -6 35.5s-11 25.333 -21 37
s-23.333 21.334 -40 29.001s-38 11.5 -64 11.5c-10 0 -22.833 -1.16699 -38.5 -3.5s-31 -8.5 -46 -18.5s-27.833 -25.5 -38.5 -46.5s-15.334 -50.167 -14.001 -87.5h-87zM219.997 109.001h99v-109h-99v109z" />
    <glyph glyph-name="at" unicode="@" horiz-adv-x="863" 
d="M517 337c0 39.333 -7.66895 71.167 -23.002 95.5s-39.666 36.5 -72.999 36.5c-18 0 -33.333 -3.66699 -46 -11s-23 -17 -31 -29s-13.833 -26 -17.5 -42s-5.5 -32.667 -5.5 -50c0 -14 1.33301 -28.667 4 -44s7.66699 -29.5 15 -42.5s17.5 -23.667 30.5 -32
s29.5 -12.5 49.5 -12.5c20.667 0 37.334 4.33301 50.001 13s22.5 19.667 29.5 33s11.667 27.5 14 42.5s3.5 29.167 3.5 42.5zM616.998 29.001c-30.667 -18 -60.4971 -30.834 -89.4971 -38.501s-61.167 -11.5 -96.5 -11.5c-51.333 0 -99.5 8 -144.5 24
s-84.333 39.833 -118 71.5s-60.167 70.667 -79.5 117s-29 99.5 -29 159.5c0 54.667 9.66699 104.834 29 150.501s45.666 84.667 78.999 117s72.666 57.5 117.999 75.5s93.666 27 144.999 27c63.333 0 118.333 -9.66699 165 -29s85.334 -45.166 116.001 -77.499
s53.5 -69.5 68.5 -111.5s22.5 -86 22.5 -132c0 -26 -4 -52.333 -12 -79s-19.667 -50.834 -35 -72.501s-34.333 -39.167 -57 -52.5s-48.667 -20 -78 -20c-6.66699 0 -14.167 0.5 -22.5 1.5s-16.5 3.16699 -24.5 6.5s-15.833 8.16602 -23.5 14.499
s-13.834 14.833 -18.501 25.5c-3.33301 -6.66699 -8 -13.334 -14 -20.001s-13.667 -12.5 -23 -17.5s-21 -9 -35 -12s-30.667 -4.5 -50 -4.5c-54 0 -96.333 17.833 -127 53.5s-46 83.5 -46 143.5c0 27.333 3.66699 53 11 77s18.166 44.833 32.499 62.5s31.833 31.667 52.5 42
s44 15.5 70 15.5c33.333 0 59 -5.5 77 -16.5s31.667 -23.833 41 -38.5h3v41h76v-252c0 -26 3.83301 -42.167 11.5 -48.5s16.5 -9.5 26.5 -9.5c18 0 33.5 5 46.5 15s23.667 22.833 32 38.5s14.333 32.834 18 51.501s5.5 37 5.5 55c0 47.333 -8 89.333 -24 126
s-38 67.5 -66 92.5s-60.833 43.833 -98.5 56.5s-77.834 19 -120.501 19c-48 0 -91 -8.66699 -129 -26s-70.167 -40.5 -96.5 -69.5s-46.666 -62.5 -60.999 -100.5s-21.5 -77.333 -21.5 -118c0 -55.333 9.16699 -102.833 27.5 -142.5s42.333 -72.167 72 -97.5
s62.834 -44.166 99.501 -56.499s73 -18.5 109 -18.5c38 0 69.833 5.16699 95.5 15.5s46.167 20.5 61.5 30.5z" />
    <glyph glyph-name="A" unicode="A" horiz-adv-x="622" 
d="M433 260l-122 345l-122 -345h244zM97 0h-101l265 700h100l265 -700h-101l-66 181h-296z" />
    <glyph glyph-name="B" unicode="B" horiz-adv-x="689" 
d="M179 79l195.001 0.00390625c16 0 33.5 1.16699 52.5 3.5s36.5 7.66602 52.5 15.999s29.333 20.666 40 36.999s16 38.833 16 67.5c0 22.667 -3.83301 41.667 -11.5 57s-18.5 27.666 -32.5 36.999s-30.833 16.166 -50.5 20.499s-41.834 6.5 -66.501 6.5h-195v-245z
M179.001 403.004h188.999c26 0 47.667 3 65 9s31.333 14 42 24s18.334 21.5 23.001 34.5s7 26.833 7 41.5c0 10 -1.5 21.333 -4.5 34s-9.16699 24.5 -18.5 35.5s-22.833 20.333 -40.5 28s-41.167 11.5 -70.5 11.5h-192v-218zM392 700.004c42.667 0 77.5 -5.5 104.5 -16.5
s48.167 -25 63.5 -42s26 -36 32 -57s9 -41.833 9 -62.5c0 -18.667 -3 -36.5 -9 -53.5s-14.333 -32.167 -25 -45.5s-23 -24.5 -37 -33.5s-29.333 -14.833 -46 -17.5v-3c14.667 -2.66699 30.5 -7.33398 47.5 -14.001s32.833 -16.667 47.5 -30s27 -30.5 37 -51.5
s15 -47.167 15 -78.5c0 -25.333 -3.66699 -49.666 -11 -72.999s-20.5 -44 -39.5 -62s-44.5 -32.5 -76.5 -43.5s-73 -16.5 -123 -16.5h-296v700h307z" />
    <glyph glyph-name="C" unicode="C" horiz-adv-x="712" 
d="M674 232c-3.33301 -25.333 -10.002 -52.6709 -20.002 -82.0039s-26.167 -56.666 -48.5 -81.999s-51.833 -46.5 -88.5 -63.5s-83 -25.5 -139 -25.5c-52 0 -98.667 8.16699 -140 24.5s-76.166 40 -104.499 71s-50.166 68.667 -65.499 113s-23 94.5 -23 150.5
c0 62 6.83301 114.5 20.5 157.5s31 78.667 52 107s44.5 50.5 70.5 66.5s51.167 27.833 75.5 35.5s46.5 12.334 66.5 14.001s35 2.5 45 2.5c56 0 102 -7.33301 138 -22s64.833 -33.5 86.5 -56.5s37.334 -48.5 47.001 -76.5s15.834 -55.333 18.501 -82h-94
c-1.33301 12.667 -4.83301 28 -10.5 46s-15.5 35.333 -29.5 52s-33.5 30.834 -58.5 42.501s-57.5 17.5 -97.5 17.5c-44 0 -80.667 -8.5 -110 -25.5s-52.833 -39.5 -70.5 -67.5s-30.334 -60 -38.001 -96s-11.5 -73 -11.5 -111c0 -40.667 5.33301 -78.334 16 -113.001
s26.334 -64.667 47.001 -90s45.5 -45.166 74.5 -59.499s62.167 -21.5 99.5 -21.5c28 0 53.833 4.33301 77.5 13s44.167 20.834 61.5 36.501s31.166 34 41.499 55s16.166 44.167 17.499 69.5h94z" />
    <glyph glyph-name="D" unicode="D" horiz-adv-x="719" 
d="M179 79h130.999c90 0 156.667 21.833 200 65.5s65 112.167 65 205.5c0 52.667 -6.83301 96.5 -20.5 131.5s-31.667 62.833 -54 83.5s-47.666 35.167 -75.999 43.5s-57.5 12.5 -87.5 12.5h-158v-542zM341.999 700c12 0 28.498 -0.666992 49.498 -2s43.833 -5.5 68.5 -12.5
s49.834 -17.667 75.501 -32s48.834 -34.333 69.501 -60s37.5 -58.167 50.5 -97.5s19.5 -87.333 19.5 -144c0 -57.333 -6.33301 -105.833 -19 -145.5s-29.334 -72.5 -50.001 -98.5s-44.167 -46.333 -70.5 -61s-53.166 -25.5 -80.499 -32.5s-53.833 -11.167 -79.5 -12.5
s-48.5 -2 -68.5 -2h-222v700h257z" />
    <glyph glyph-name="E" unicode="E" horiz-adv-x="612" 
d="M546 401v-79h-367v-243h416v-79h-510v700h499v-79h-405v-220h367z" />
    <glyph glyph-name="F" unicode="F" horiz-adv-x="568" 
d="M508 393v-79h-329v-314h-94v700h470v-79h-376v-228h329z" />
    <glyph glyph-name="G" unicode="G" horiz-adv-x="740" 
d="M682 365l0.00683594 -365.003h-73v113h-2c-20 -42 -50 -74.833 -90 -98.5s-87.667 -35.5 -143 -35.5c-42 0 -82.667 6.5 -122 19.5s-74.333 34.333 -105 64s-55.334 68.667 -74.001 117s-28 107.5 -28 177.5c0 59.333 8 111.666 24 156.999s39 83.333 69 114
s66 53.834 108 69.501s89 23.5 141 23.5c46.667 0 87.167 -6.5 121.5 -19.5s63 -30.167 86 -51.5s40.833 -45.666 53.5 -72.999s20.667 -55.333 24 -84h-94c-1.33301 16 -5.33301 32.833 -12 50.5s-17.334 33.667 -32.001 48s-34.167 26.333 -58.5 36s-54.5 14.5 -90.5 14.5
c-36.667 0 -68.167 -5.33301 -94.5 -16s-48.333 -24.667 -66 -42s-31.834 -36.666 -42.501 -57.999s-18.667 -42.666 -24 -63.999s-8.83301 -41.5 -10.5 -60.5s-2.5 -34.833 -2.5 -47.5c0 -8.66699 0.666992 -22 2 -40s4.66602 -37.833 9.99902 -59.5
s13.166 -44.167 23.499 -67.5s24.333 -44.5 42 -63.5s39.667 -34.667 66 -47s58.166 -18.5 95.499 -18.5c43.333 0 78.666 7.83301 105.999 23.5s48.833 35 64.5 58s26.5 47.833 32.5 74.5s9 50.667 9 72h-200v79h286z" />
    <glyph glyph-name="H" unicode="H" horiz-adv-x="710" 
d="M179 0h-94v700h94v-292h352v292h94v-700h-94v329h-352v-329z" />
    <glyph glyph-name="I" unicode="I" horiz-adv-x="264" 
d="M179 700v-700h-94v700h94z" />
    <glyph glyph-name="J" unicode="J" horiz-adv-x="520" 
d="M117 232c0 -28 2.00098 -52.6689 6.00098 -74.002s10.5 -39.5 19.5 -54.5s21.167 -26.333 36.5 -34s35 -11.5 59 -11.5c24.667 0 44.667 4.33301 60 13s27.166 20.667 35.499 36s13.833 33.833 16.5 55.5s4 45.167 4 70.5v467h94v-458c0 -46 -3.83301 -85.5 -11.5 -118.5
s-19.834 -60.167 -36.501 -81.5s-38.5 -37.166 -65.5 -47.499s-59.5 -15.5 -97.5 -15.5c-18 0 -39.167 1.83301 -63.5 5.5s-47.666 12.834 -69.999 27.501s-41.333 36.5 -57 65.5s-23.5 68.5 -23.5 118.5v36h94z" />
    <glyph glyph-name="K" unicode="K" horiz-adv-x="667" 
d="M525 700h127l-292 -288l311 -412h-125l-255 349l-112 -109v-240h-94v700h94v-347z" />
    <glyph glyph-name="L" unicode="L" horiz-adv-x="529" 
d="M535 0h-450v700h94v-621h356v-79z" />
    <glyph glyph-name="M" unicode="M" horiz-adv-x="890" 
d="M179 588h-2l2 -27v-561h-94v700h141l219 -576l219 576h141v-700h-94v561l2 27h-3l-227 -588h-76z" />
    <glyph glyph-name="N" unicode="N" horiz-adv-x="740" 
d="M179 0h-94v700h104l372 -555v555h94v-700h-103l-373 555v-555z" />
    <glyph glyph-name="O" unicode="O" horiz-adv-x="758" 
d="M145 350c0 -28 2.82812 -58.9971 8.49512 -92.9971s16.834 -65.833 33.501 -95.5s40.334 -54.334 71.001 -74.001s71 -29.5 121 -29.5c8 0 19.333 0.666992 34 2s30.667 5 48 11s35 15.167 53 27.5s34.333 29.166 49 50.499s26.667 48.5 36 81.5s14 72.833 14 119.5
c0 41.333 -4.66699 79.833 -14 115.5s-23.5 66.5 -42.5 92.5s-43.333 46.5 -73 61.5s-64.5 22.5 -104.5 22.5c-36 0 -66.667 -5.5 -92 -16.5s-46.666 -25.167 -63.999 -42.5s-31.166 -36.833 -41.499 -58.5s-18.166 -43.334 -23.499 -65.001s-8.83301 -42.167 -10.5 -61.5
s-2.5 -35.333 -2.5 -48zM44.9951 350.003c0 61.333 8.33203 115.168 24.999 161.501s39.667 85 69 116s64.5 54.333 105.5 70s85.833 23.5 134.5 23.5c38.667 0 77.834 -6 117.501 -18s75.5 -32.167 107.5 -60.5s58.167 -66.333 78.5 -114s30.5 -107.167 30.5 -178.5
c0 -61.333 -7.33301 -113 -22 -155s-33.167 -76.667 -55.5 -104s-46.833 -48.5 -73.5 -63.5s-52.334 -26.167 -77.001 -33.5s-46.667 -11.666 -66 -12.999s-32.666 -2 -39.999 -2c-8 0 -21.667 0.666992 -41 2s-41.333 5.66602 -66 12.999s-50.334 18.5 -77.001 33.5
s-51.167 36.167 -73.5 63.5s-40.666 62.166 -54.999 104.499s-21.5 93.833 -21.5 154.5z" />
    <glyph glyph-name="P" unicode="P" horiz-adv-x="639" 
d="M179 358h172c56 0 96.667 11.667 122 35s38 58 38 104c0 43.333 -13.167 74.833 -39.5 94.5s-66.5 29.5 -120.5 29.5h-172v-263zM370 700c36 0 68.498 -3.66699 97.498 -11s53.833 -19 74.5 -35s36.667 -36.833 48 -62.5s17 -56.5 17 -92.5
c0 -32.667 -4.33301 -62.5 -13 -89.5s-22.667 -50.167 -42 -69.5s-44.666 -34.333 -75.999 -45s-69.666 -16 -114.999 -16h-182v-279h-94v700h285z" />
    <glyph glyph-name="Q" unicode="Q" horiz-adv-x="758" 
d="M550 131c21.333 27.333 37.167 58.332 47.5 92.999s15.5 76.667 15.5 126c0 65.333 -8.83301 117.333 -26.5 156s-38.834 68 -63.501 88s-50.334 33 -77.001 39s-49 9 -67 9c-12.667 0 -27.167 -1.16699 -43.5 -3.5s-33.166 -7.16602 -50.499 -14.499
s-34.5 -17.5 -51.5 -30.5s-32 -30.333 -45 -52s-23.5 -48.167 -31.5 -79.5s-12 -68.666 -12 -111.999c0 -27.333 2.83301 -57.833 8.5 -91.5s16.834 -65.334 33.501 -95.001s40.334 -54.667 71.001 -75s71 -30.5 121 -30.5c8 0 17.167 0.5 27.5 1.5s20.666 2.5 30.999 4.5
s20.5 4.83301 30.5 8.5s19 8.16699 27 13.5l-78 87l54 47zM691.001 -25.001l-52 -49.002l-83 93c-3.33301 -2 -9.33301 -5.16699 -18 -9.5s-20.334 -8.83301 -35.001 -13.5s-32.334 -8.66699 -53.001 -12s-44.334 -5 -71.001 -5c-68 0 -123.5 12.167 -166.5 36.5
s-77 55 -102 92s-42.167 77.167 -51.5 120.5s-14 84 -14 122c0 20 1.66699 43 5 69s9.33301 52.667 18 80s20.834 54.333 36.501 81s35.834 50.5 60.501 71.5s54.5 37.833 89.5 50.5s76.5 19 124.5 19c48.667 0 93.5 -7.83301 134.5 -23.5s76.167 -39 105.5 -70
s52.333 -69.667 69 -116s25 -100.166 25 -161.499c0 -18 -0.833008 -38.5 -2.5 -61.5s-6 -47.167 -13 -72.5s-17.167 -51.166 -30.5 -77.499s-31.666 -51.833 -54.999 -76.5z" />
    <glyph glyph-name="R" unicode="R" horiz-adv-x="681" 
d="M179 376l209.999 0.00195312c11.333 0 24.833 1.5 40.5 4.5s30.834 9 45.501 18s27 21.667 37 38s15 38.166 15 65.499c0 22.667 -3.83301 41.667 -11.5 57s-18.167 27.666 -31.5 36.999s-29.333 15.833 -48 19.5s-39 5.5 -61 5.5h-196v-245zM84.999 700.002h310.002
c12.667 0 27.167 -0.5 43.5 -1.5s33.166 -3.66699 50.499 -8s34.166 -10.5 50.499 -18.5s31 -18.833 44 -32.5s23.5 -31 31.5 -52s12 -46.167 12 -75.5c0 -20 -2.66699 -39.5 -8 -58.5s-13.166 -36.333 -23.499 -52s-23 -29 -38 -40s-31.833 -18.5 -50.5 -22.5v-3
c23.333 -8.66699 41.666 -19 54.999 -31s23.333 -25.167 30 -39.5s10.834 -29.833 12.501 -46.5s2.83398 -34 3.50098 -52c0.666992 -24 1.16699 -44.333 1.5 -61s1.16602 -31.167 2.49902 -43.5s3.83301 -23.333 7.5 -33s9.16699 -19.5 16.5 -29.5h-99
c-6 8 -10.833 15.833 -14.5 23.5s-6.16699 17 -7.5 28s-2.33301 24.167 -3 39.5s-1 34.333 -1 57c0 18 -1 35.833 -3 53.5s-7.33301 33.667 -16 48s-21.834 25.833 -39.501 34.5s-42.167 13 -73.5 13h-200v-297h-94v700z" />
    <glyph glyph-name="S" unicode="S" horiz-adv-x="656" 
d="M139 222c-0.666992 -23.333 3.3291 -44.9951 11.9961 -64.9951s21.667 -37.333 39 -52s38.5 -26.167 63.5 -34.5s53.5 -12.5 85.5 -12.5c31.333 0 57.833 3.66699 79.5 11s39.334 17 53.001 29s23.667 25.833 30 41.5s9.5 31.834 9.5 48.501
c0 21.333 -4.33301 39.166 -13 53.499s-19.667 26 -33 35s-28.5 16.167 -45.5 21.5s-33.5 9.66602 -49.5 12.999l-114.5 24.5c-36.333 7.66699 -68.333 18.5 -96 32.5s-49.667 32.833 -66 56.5s-24.5 55.5 -24.5 95.5c0 32.667 6.33301 61.667 19 87s30.667 46.333 54 63
s51.333 29.334 84 38.001s68.667 13 108 13c43.333 0 80.833 -5.5 112.5 -16.5s58 -25.833 79 -44.5s37 -40.334 48 -65.001s17.5 -50.334 19.5 -77.001h-94c-3.33301 28.667 -11.833 51.334 -25.5 68.001s-29.167 29.167 -46.5 37.5s-35 13.5 -53 15.5s-32.333 3 -43 3
c-48.667 0 -87.834 -10.5 -117.501 -31.5s-44.5 -49.5 -44.5 -85.5c0 -21.333 4.83301 -38.5 14.5 -51.5s22.5 -23.667 38.5 -32s34.5 -14.833 55.5 -19.5s43.167 -9.33398 66.5 -14.001c31.333 -6 62.833 -12.833 94.5 -20.5s60.334 -19.167 86.001 -34.5
s46.5 -35.833 62.5 -61.5s24 -59.5 24 -101.5c0 -34.667 -5.5 -64 -16.5 -88s-25.167 -43.833 -42.5 -59.5s-36.666 -27.834 -57.999 -36.501s-42.166 -15 -62.499 -19s-39.333 -6.33301 -57 -7s-31.167 -1 -40.5 -1c-24.667 0 -53.167 2.33301 -85.5 7
s-63.166 15.167 -92.499 31.5s-54.5 40.666 -75.5 72.999s-32.833 76.166 -35.5 131.499h94z" />
    <glyph glyph-name="T" unicode="T" horiz-adv-x="575" 
d="M13 621v79h549v-79h-227v-621h-94v621h-228z" />
    <glyph glyph-name="U" unicode="U" horiz-adv-x="696" 
d="M166 700l-0.000976562 -416.999c0 -21.333 1.16699 -45.166 3.5 -71.499s9.5 -50.833 21.5 -73.5s30.167 -41.667 54.5 -57s58.5 -23 102.5 -23c34.667 0 63.667 4.83301 87 14.5s42 24 56 43s24 42.5 30 70.5s9 60.333 9 97v417h94v-429c0 -48 -5 -88.333 -15 -121
s-23.167 -59.834 -39.5 -81.501s-34.666 -38.5 -54.999 -50.5s-40.833 -20.833 -61.5 -26.5s-40.167 -9.16699 -58.5 -10.5s-33.833 -2 -46.5 -2c-42.667 0 -79 4.5 -109 13.5s-55.333 20.833 -76 35.5s-37 32 -49 52s-21.167 40.667 -27.5 62s-10.333 43.166 -12 65.499
s-2.5 43.5 -2.5 63.5v429h94z" />
    <glyph glyph-name="V" unicode="V" horiz-adv-x="594" 
d="M495 700h103l-245 -700h-112l-245 700h103l198 -603z" />
    <glyph glyph-name="W" unicode="W" horiz-adv-x="894" 
d="M302 0h-120l-186 700h106l146 -588l145 588h108l145 -588l146 588h106l-186 -700h-120l-145 589z" />
    <glyph glyph-name="X" unicode="X" horiz-adv-x="610" 
d="M480 700h117l-232 -342l245 -358h-121l-184 291l-184 -291h-121l245 358l-232 342h117l175 -275z" />
    <glyph glyph-name="Y" unicode="Y" horiz-adv-x="605" 
d="M497 700h112l-259 -408v-292h-94v292l-260 408h112l195 -324z" />
    <glyph glyph-name="Z" unicode="Z" horiz-adv-x="593" 
d="M547 700v-75l-406 -546h426v-79h-541v86l411 535h-389v79h499z" />
    <glyph glyph-name="bracketleft" unicode="[" horiz-adv-x="370" 
d="M317 700v-62h-123v-761h123v-62h-211v885h211z" />
    <glyph glyph-name="backslash" unicode="\" horiz-adv-x="420" 
d="M357 -185l-357 885h63l357 -885h-63z" />
    <glyph glyph-name="bracketright" unicode="]" horiz-adv-x="370" 
d="M264 700v-885h-211v62h122v761h-122v62h211z" />
    <glyph glyph-name="asciicircum" unicode="^" horiz-adv-x="442" 
d="M266 700l120 -218h-70l-95 175l-95 -175h-70l120 218h90z" />
    <glyph glyph-name="underscore" unicode="_" horiz-adv-x="497" 
d="M0 -133h497v-52h-497v52z" />
    <glyph glyph-name="grave" unicode="`" horiz-adv-x="312" 
d="M218 568h-80l-96 132h106z" />
    <glyph glyph-name="a" unicode="a" horiz-adv-x="553" 
d="M385 260c-6.66699 -5.33301 -13.667 -9.16797 -21 -11.501s-15.333 -4.16602 -24 -5.49902s-18.5 -2.5 -29.5 -3.5s-23.5 -2.5 -37.5 -4.5l-55.5 -9.5c-17.667 -3 -33.167 -7.66699 -46.5 -14s-23.833 -15.5 -31.5 -27.5s-11.5 -28 -11.5 -48
c0 -30 9.16699 -53.167 27.5 -69.5s41.833 -24.5 70.5 -24.5c17.333 0 34.833 2.5 52.5 7.5s34 14 49 27s27.5 30.833 37.5 53.5s16 51.667 18 87zM55 357.998c0 16.667 2.83301 34.999 8.5 54.999s16.334 38.5 32.001 55.5s37.667 31.167 66 42.5s64.833 17 109.5 17
c20.667 0 42.834 -2 66.501 -6s45.667 -12 66 -24s37.166 -29.167 50.499 -51.5s19.666 -52.166 18.999 -89.499l-5 -235c0 -10 0.166992 -18.833 0.5 -26.5s2.16602 -14 5.49902 -19s8.66602 -8.83301 15.999 -11.5s17.666 -3.66699 30.999 -3v-62
c-6 -1.33301 -11.833 -2.33301 -17.5 -3s-13.167 -1 -22.5 -1c-12 0 -23.167 0.833008 -33.5 2.5s-19.333 5 -27 10s-14 12.333 -19 22s-8.83301 22.834 -11.5 39.501c-8.66699 -16 -19.334 -29.667 -32.001 -41s-26.667 -20.666 -42 -27.999s-31.5 -12.666 -48.5 -15.999
s-34.167 -5 -51.5 -5c-53.333 0 -96.5 12.167 -129.5 36.5s-49.5 63.166 -49.5 116.499c0 22 3.33301 41.833 10 59.5s19.334 33.334 38.001 47.001s44 25 76 34s73.667 15.833 125 20.5c18.667 1.33301 34.334 2.66602 47.001 3.99902s22.834 4.16602 30.501 8.49902
s13.167 10.833 16.5 19.5s5 21.334 5 38.001c0 6 -0.666992 14.667 -2 26s-5.66602 22.666 -12.999 33.999s-18.666 21.166 -33.999 29.499s-37 12.5 -65 12.5c-8 0 -19.5 -0.666992 -34.5 -2s-29.833 -5.5 -44.5 -12.5s-27.334 -17.667 -38.001 -32
s-15.667 -34.833 -15 -61.5h-84z" />
    <glyph glyph-name="b" unicode="b" horiz-adv-x="601" 
d="M154 257c0 -40 4.33203 -73.6641 12.999 -100.997s20.167 -49.5 34.5 -66.5s30.5 -29.167 48.5 -36.5s36.667 -11 56 -11c20.667 0 40.667 3.66699 60 11s36.333 19.333 51 36s26.334 38.667 35.001 66s13 60.666 13 99.999c0 38 -4.16699 70.333 -12.5 97
s-19.5 48.5 -33.5 65.5s-30.333 29.333 -49 37s-38.334 11.5 -59.001 11.5c-21.333 0 -41.5 -4 -60.5 -12s-35.667 -20.333 -50 -37s-25.666 -38.334 -33.999 -65.001s-12.5 -58.334 -12.5 -95.001zM159.999 700.003l-0.00292969 -257.999c14 30 36.167 51.833 66.5 65.5
s63.833 20.5 100.5 20.5s67.834 -5.33301 93.501 -16s47 -24.334 64 -41.001s30.5 -35.334 40.5 -56.001s17.333 -41.167 22 -61.5s7.66699 -39.166 9 -56.499s2 -31.333 2 -42c0 -55.333 -7.66699 -100.833 -23 -136.5s-34.666 -63.667 -57.999 -84
s-48.666 -34.5 -75.999 -42.5s-52.666 -12 -75.999 -12c-21.333 0 -40.5 2.5 -57.5 7.5s-32.333 11.667 -46 20s-25.834 17.833 -36.501 28.5s-20 22 -28 34h-3v-70h-82v700h88z" />
    <glyph glyph-name="c" unicode="c" horiz-adv-x="548" 
d="M512 181c-1.33301 -15.333 -5.16992 -34.3301 -11.5029 -56.9971s-17.333 -44.667 -33 -66s-37.667 -39.666 -66 -54.999s-65.166 -23 -110.499 -23c-8.66699 0 -20.667 0.666992 -36 2s-32.333 4.66602 -51 9.99902s-37.5 13.833 -56.5 25.5s-36.167 27.667 -51.5 48
s-28 46.166 -38 77.499s-15 69.666 -15 114.999c0 29.333 3.33301 60 10 92s19 61.167 37 87.5s42.667 48 74 65s71.666 25.5 120.999 25.5c36 0 67.333 -4.83301 94 -14.5s49 -22.834 67 -39.501s32.167 -35.667 42.5 -57s16.833 -44 19.5 -68h-84
c-4.66699 28 -13 50 -25 66s-25 27.667 -39 35s-27.833 11.833 -41.5 13.5s-24.167 2.5 -31.5 2.5c-27.333 0 -50.666 -5.5 -69.999 -16.5s-35 -25.833 -47 -44.5s-20.667 -40.667 -26 -66s-8 -52.333 -8 -81s3 -56 9 -82s15.167 -49 27.5 -69s28.5 -35.833 48.5 -47.5
s44 -17.5 72 -17.5c24.667 0 45.5 4.66699 62.5 14s30.833 20.833 41.5 34.5s18.334 28.667 23.001 45s7.33398 31.5 8.00098 45.5h84z" />
    <glyph glyph-name="d" unicode="d" horiz-adv-x="599" 
d="M136 255c0 -48 5.83301 -86.168 17.5 -114.501s25.667 -49.666 42 -63.999s33.5 -23.666 51.5 -27.999s33.333 -6.5 46 -6.5c19.333 0 38.166 3.83301 56.499 11.5s34.5 20 48.5 37s25.333 39.167 34 66.5s13 60.666 13 99.999c0 36.667 -4.16699 68.167 -12.5 94.5
s-19.833 48 -34.5 65s-31.5 29.5 -50.5 37.5s-38.833 12 -59.5 12c-21.333 0 -41.166 -4 -59.499 -12s-34.333 -20.5 -48 -37.5s-24.5 -38.833 -32.5 -65.5s-12 -58.667 -12 -96zM527 699.999l-0.00292969 -700.002h-82v70h-3c-4 -8 -10 -17.333 -18 -28
s-18.667 -20.5 -32 -29.5s-29.666 -16.667 -48.999 -23s-42.333 -9.5 -69 -9.5c-37.333 0 -70.333 6.66699 -99 20s-52.667 32.166 -72 56.499s-34.166 53.333 -44.499 87s-15.5 70.834 -15.5 111.501c0 26.667 2.66699 55.834 8 87.501s16.333 61.334 33 89.001
s39.834 50.667 69.501 69s69.167 27.5 118.5 27.5c34 0 65.167 -5.66699 93.5 -17s52.833 -34.333 73.5 -69v258h88z" />
    <glyph glyph-name="e" unicode="e" horiz-adv-x="570" 
d="M434 296c-0.666992 16.667 -2.99902 35 -6.99902 55s-11.167 38.5 -21.5 55.5s-24.5 31.167 -42.5 42.5s-41.333 17 -70 17c-32 0 -58.333 -5.83301 -79 -17.5s-36.834 -26.167 -48.501 -43.5s-19.5 -35.833 -23.5 -55.5s-6 -37.5 -6 -53.5h298zM522.001 147
c-3.33301 -18 -9.49707 -36.832 -18.4971 -56.499s-22 -37.667 -39 -54s-38.833 -29.833 -65.5 -40.5s-59.667 -16 -99 -16c-42 0 -77.5 5.66699 -106.5 17s-53 25.833 -72 43.5s-33.833 37.167 -44.5 58.5s-18.5 42 -23.5 62s-8 38.333 -9 55s-1.5 28.667 -1.5 36
c0 11.333 0.666992 26.166 2 44.499s4.66602 37.666 9.99902 57.999s13.333 40.833 24 61.5s25.167 39.334 43.5 56.001s41.166 30.167 68.499 40.5s60.666 15.5 99.999 15.5c50.667 0 91.167 -8.83301 121.5 -26.5s53.666 -39.834 69.999 -66.501
s27.333 -55.834 33 -87.501s9.16699 -61.167 10.5 -88.5c0 -4 0.166992 -8.16699 0.5 -12.5s0.5 -8.5 0.5 -12.5h-391c0 -22 3 -44.333 9 -67s15.333 -43.167 28 -61.5s29.167 -33.5 49.5 -45.5s45.166 -18 74.499 -18c20.667 0 39.334 2.83301 56.001 8.5
s30.834 13.334 42.501 23.001s21 20.834 28 33.501s11.833 26 14.5 40h84z" />
    <glyph glyph-name="f" unicode="f" horiz-adv-x="319" 
d="M306 446l-110.997 -0.000976562v-446h-88v446h-94v62h94v69c0 44 11 76.167 33 96.5s55.667 30.5 101 30.5c9.33301 0 20.666 -0.5 33.999 -1.5s23.666 -1.83301 30.999 -2.5v-62c-21.333 1.33301 -35.833 1.83301 -43.5 1.5s-13.834 -0.5 -18.501 -0.5
c-12 0 -21.333 -2.66699 -28 -8s-11.5 -11.666 -14.5 -18.999s-4.83301 -15 -5.5 -23s-1 -14.667 -1 -20v-61h111v-62z" />
    <glyph glyph-name="g" unicode="g" horiz-adv-x="600" 
d="M296 42c8 0 20.3311 2.16504 36.998 6.49805s33.334 14 50.001 29s31.334 36.833 44.001 65.5s19 67.667 19 117c0 64 -13.333 114.333 -40 151s-66 55 -118 55c-24.667 0 -45.5 -4.16699 -62.5 -12.5s-31 -18.833 -42 -31.5s-19.333 -27 -25 -43s-10 -31.5 -13 -46.5
s-4.66699 -29 -5 -42s-0.5 -22.833 -0.5 -29.5c0 -51.333 6.16699 -91.666 18.5 -120.999s27 -51.166 44 -65.499s34.333 -23.333 52 -27s31.5 -5.5 41.5 -5.5zM165.998 -57.002c4 -14.667 10.6699 -26.6641 20.0029 -35.9971s20.166 -16.833 32.499 -22.5
s25.666 -9.5 39.999 -11.5s28.166 -3 41.499 -3c34.667 0 61.334 7 80.001 21s32.5 30 41.5 48s14.333 35.667 16 53s2.5 29.333 2.5 36v55c-12 -19.333 -23.667 -35.5 -35 -48.5s-23.5 -23.5 -36.5 -31.5s-27 -13.833 -42 -17.5s-31.833 -5.5 -50.5 -5.5
c-30 0 -58.833 5.33301 -86.5 16s-52 27.167 -73 49.5s-37.833 51 -50.5 86s-19 77.167 -19 126.5c0 8 0.333008 20.167 1 36.5s3 34.5 7 54.5s10.5 40.5 19.5 61.5s21.667 40.333 38 58s37 32 62 43s55.833 16.5 92.5 16.5c42 0 77.833 -7.66699 107.5 -23
s52.5 -37.666 68.5 -66.999h3v70h82v-495c0 -32.667 -4.5 -60.334 -13.5 -83.001s-20.5 -41.667 -34.5 -57s-29.833 -27.333 -47.5 -36s-34.834 -15.334 -51.501 -20.001s-32.334 -7.5 -47.001 -8.5s-26 -1.5 -34 -1.5c-12 0 -28.667 0.666992 -50 2
s-43.166 6.16602 -65.499 14.499s-43 21.666 -62 39.999s-32.5 44.833 -40.5 79.5h84z" />
    <glyph glyph-name="h" unicode="h" horiz-adv-x="572" 
d="M160 700l0.00292969 -263.001c23.333 32 49.166 55.167 77.499 69.5s60.5 21.5 96.5 21.5c28 0 51.667 -3.66699 71 -11s35.166 -17 47.499 -29s21.666 -25.167 27.999 -39.5s11 -28.5 14 -42.5s4.66699 -27.167 5 -39.5s0.5 -21.833 0.5 -28.5v-338h-88v311
c0 14.667 -0.333008 31 -1 49s-4.33398 34.833 -11.001 50.5s-17.167 28.834 -31.5 39.501s-35.166 16 -62.499 16c-12 0 -26.333 -2 -43 -6s-32.667 -12.5 -48 -25.5s-28.333 -32 -39 -57s-16 -58.5 -16 -100.5v-277h-88v700h88z" />
    <glyph glyph-name="i" unicode="i" horiz-adv-x="228" 
d="M70 700h88v-92h-88v92zM158 508v-508h-88v508h88z" />
    <glyph glyph-name="j" unicode="j" horiz-adv-x="231" 
d="M73 700h88v-92h-88v92zM161 508l0.000976562 -555.001c0 -22.667 -1.83301 -42.834 -5.5 -60.501s-10 -32.5 -19 -44.5s-21.333 -21.167 -37 -27.5s-35.167 -9.5 -58.5 -9.5c-8.66699 0 -18.834 0.5 -30.501 1.5s-20.5 1.83301 -26.5 2.5v62c23.333 4 41 7.66699 53 11
s20.667 7.83301 26 13.5s8.33301 13.334 9 23.001s1 22.834 1 39.501v544h88z" />
    <glyph glyph-name="k" unicode="k" horiz-adv-x="523" 
d="M402 508h105l-200 -196l220 -312h-102l-179 258l-86 -85v-173h-88v700h88v-434z" />
    <glyph glyph-name="l" unicode="l" horiz-adv-x="232" 
d="M160 700v-700h-88v700h88z" />
    <glyph glyph-name="m" unicode="m" horiz-adv-x="872" 
d="M160 508l-0.000976562 -68.999l-1 -6c6.66699 14.667 15.667 27.834 27 39.501s24 21.667 38 30s28.833 14.666 44.5 18.999s31.5 6.5 47.5 6.5c22 0 41.333 -3.16699 58 -9.5s30.834 -14.666 42.501 -24.999s21.167 -22 28.5 -35s12.666 -26.167 15.999 -39.5
c4.66699 10 11.667 21.167 21 33.5s21 24.166 35 35.499s30.833 20.833 50.5 28.5s42.834 11.5 69.501 11.5c38.667 0 69 -7.83301 91 -23.5s38.333 -34.167 49 -55.5s17.167 -43.333 19.5 -66s3.5 -41 3.5 -55v-328h-88v322c0 13.333 -0.833008 28.333 -2.5 45
s-5.83398 32.334 -12.501 47.001s-16.5 27 -29.5 37s-30.833 15 -53.5 15c-14.667 0 -30 -2.33301 -46 -7s-30.5 -13.167 -43.5 -25.5s-23.667 -29 -32 -50s-12.5 -47.833 -12.5 -80.5v-303h-88v321c0 18.667 -1.33301 36.667 -4 54s-7.66699 32.666 -15 45.999
s-17.333 24.166 -30 32.499s-29 12.5 -49 12.5c-18 0 -35.167 -3.83301 -51.5 -11.5s-30.666 -18.5 -42.999 -32.5s-22 -31.167 -29 -51.5s-10.5 -42.833 -10.5 -67.5v-303h-88v508h88z" />
    <glyph glyph-name="n" unicode="n" horiz-adv-x="573" 
d="M160 508l0.000976562 -71.001c17.333 25.333 40.666 46.833 69.999 64.5s64 26.5 104 26.5c33.333 0 60.833 -5.16699 82.5 -15.5s38.667 -24.166 51 -41.499s21 -37.5 26 -60.5s7.5 -47.167 7.5 -72.5v-338h-88v311c0 13.333 -0.5 29 -1.5 47s-4.66699 35 -11 51
s-16.833 29.5 -31.5 40.5s-35.667 16.5 -63 16.5c-12 0 -26.333 -2 -43 -6s-32.667 -12.5 -48 -25.5s-28.333 -32 -39 -57s-16 -58.5 -16 -100.5v-277h-88v508h88z" />
    <glyph glyph-name="o" unicode="o" horiz-adv-x="586" 
d="M136 255c0 -50.667 6.33301 -90.334 19 -119.001s27.667 -50 45 -64s34.666 -22.5 51.999 -25.5s31 -4.5 41 -4.5s23.667 1.5 41 4.5s34.666 11.5 51.999 25.5s32.333 35.333 45 64s19 68.334 19 119.001s-6.33301 90.334 -19 119.001s-27.667 50 -45 64
s-34.666 22.5 -51.999 25.5s-31 4.5 -41 4.5s-23.667 -1.5 -41 -4.5s-34.666 -11.5 -51.999 -25.5s-32.333 -35.333 -45 -64s-19 -68.334 -19 -119.001zM43 254c0 34 4.33301 67.333 13 100s22.834 61.834 42.501 87.501s45.5 46.5 77.5 62.5s71 24 117 24s85 -8 117 -24
s57.833 -36.833 77.5 -62.5s33.834 -54.834 42.501 -87.501s13 -66 13 -100s-4.33301 -67.333 -13 -100s-22.834 -61.834 -42.501 -87.501s-45.5 -46.5 -77.5 -62.5s-71 -24 -117 -24s-85 8 -117 24s-57.833 36.833 -77.5 62.5s-33.834 54.834 -42.501 87.501
s-13 66 -13 100z" />
    <glyph glyph-name="p" unicode="p" horiz-adv-x="597" 
d="M154 252c0 -39.333 4.99902 -72.332 14.999 -98.999s22.833 -48.334 38.5 -65.001s32.667 -28.5 51 -35.5s35.833 -10.5 52.5 -10.5c18 0 35.833 3.5 53.5 10.5s33.667 18.667 48 35s26 38 35 65s13.5 60.833 13.5 101.5c0 65.333 -13.333 117 -40 155s-65 57 -115 57
c-11.333 0 -25.666 -2.16699 -42.999 -6.5s-34 -13.833 -50 -28.5s-29.833 -36.167 -41.5 -64.5s-17.5 -66.5 -17.5 -114.5zM153.999 508.001v-69.999h3c12.667 19.333 26.5 34.833 41.5 46.5s30 20.834 45 27.501s29.5 11 43.5 13s26.667 3 38 3
c31.333 0 60.833 -5.33301 88.5 -16s52 -27.167 73 -49.5s37.5 -50.833 49.5 -85.5s18 -75.667 18 -123c0 -49.333 -6.33301 -91.333 -19 -126s-29.667 -63 -51 -85s-45.666 -38 -72.999 -48s-55.333 -15 -84 -15c-5.33301 0 -14.833 0.666992 -28.5 2
s-28.834 5.16602 -45.501 11.499s-33.5 15.666 -50.5 27.999s-31.167 29.5 -42.5 51.5v-258h-88v693h82z" />
    <glyph glyph-name="q" unicode="q" horiz-adv-x="598" 
d="M136 254c0 -40.667 4.50098 -74.498 13.501 -101.498s20.667 -48.667 35 -65s30.666 -28 48.999 -35s36.5 -10.5 54.5 -10.5c16.667 0 34.167 3.5 52.5 10.5s35.166 18.667 50.499 35s28 38 38 65s15 60.167 15 99.5c0 42 -4.66699 76.833 -14 104.5
s-21.166 49.667 -35.499 66s-30.5 27.666 -48.5 33.999s-35.667 9.5 -53 9.5c-20.667 0 -40.5 -3.83301 -59.5 -11.5s-35.667 -19.834 -50 -36.501s-25.833 -38.5 -34.5 -65.5s-13 -59.833 -13 -98.5zM526.001 508.002l0.000976562 -693h-88v257
c-2.66699 -5.33301 -7.5 -13.166 -14.5 -23.499s-17 -20.5 -30 -30.5s-29.5 -18.833 -49.5 -26.5s-44.333 -11.5 -73 -11.5c-48 0 -87 9.66699 -117 29s-53.167 43.166 -69.5 71.499s-27.333 58.333 -33 90s-8.5 59.5 -8.5 83.5c0 37.333 4.66699 72.5 14 105.5
s23.666 62 42.999 87s43.333 44.833 72 59.5s62.667 22 102 22c42 0 76.5 -9 103.5 -27s48.167 -39 63.5 -63h3v70h82z" />
    <glyph glyph-name="r" unicode="r" horiz-adv-x="369" 
d="M356 466c-30 -1.33301 -56.5 -5.33301 -79.5 -12s-42.667 -17 -59 -31s-29.333 -32 -39 -54s-15.5 -49 -17.5 -81c-0.666992 -9.33301 -1 -18.333 -1 -27v-27v-234h-88v508h88v-98h2c6 18.667 14.833 35.167 26.5 49.5s25 26.333 40 36s31.167 17.167 48.5 22.5
s35 8.33301 53 9l26 1v-62z" />
    <glyph glyph-name="s" unicode="s" horiz-adv-x="506" 
d="M124 151c0.666992 -20 4.99902 -37.001 12.999 -51.001s18.5 -25.333 31.5 -34s27.667 -14.834 44 -18.501s32.833 -5.5 49.5 -5.5c29.333 0 52 4 68 12s27.667 17.333 35 28s11.5 21.334 12.5 32.001s1.5 18.667 1.5 24c0 8 -0.833008 15.833 -2.5 23.5
s-6.16699 15 -13.5 22s-18.166 13.667 -32.499 20s-33.833 12.5 -58.5 18.5l-54 12c-21.333 4.66699 -41.666 10 -60.999 16s-36.333 14.333 -51 25s-26.334 24.5 -35.001 41.5s-13 38.833 -13 65.5c0 28 5.66699 51.5 17 70.5s26.333 34 45 45s39.334 18.833 62.001 23.5
s45.667 7 69 7c43.333 0 78.166 -5.33301 104.499 -16s46.833 -23.834 61.5 -39.501s24.667 -32.334 30 -50.001s8.66602 -33.5 9.99902 -47.5h-84c-0.666992 7.33301 -2.5 16.166 -5.5 26.499s-8.66699 20.333 -17 30s-20.166 17.834 -35.499 24.501s-35.666 10 -60.999 10
c-2.66699 0 -9.66699 -0.333008 -21 -1s-23.166 -3.5 -35.499 -8.5s-23.5 -13 -33.5 -24s-15 -26.5 -15 -46.5c0 -18 3.83301 -32.333 11.5 -43s18 -19 31 -25s28 -10.833 45 -14.5l52.5 -11.5c26 -6 50 -12.167 72 -18.5s41.167 -14.666 57.5 -24.999s29 -23.833 38 -40.5
s13.5 -38 13.5 -64c0 -26.667 -4.66699 -49.167 -14 -67.5s-21 -33.666 -35 -45.999s-29.5 -21.833 -46.5 -28.5s-33.333 -11.667 -49 -15s-29.334 -5.33301 -41.001 -6s-19.5 -1 -23.5 -1c-38 0 -70.833 4.5 -98.5 13.5s-50.834 21.333 -69.501 37
s-32.667 33.834 -42 54.501s-14.333 42.667 -15 66h88z" />
    <glyph glyph-name="t" unicode="t" horiz-adv-x="320" 
d="M104 508v151.999h88v-152h108v-62h-108v-323c0 -9.33301 0.166992 -18.166 0.5 -26.499s2 -15.833 5 -22.5s8.16699 -11.834 15.5 -15.501s18 -5.5 32 -5.5c9.33301 0 18.666 0.833008 27.999 2.5s18.333 3.83398 27 6.50098v-62c-14 -6 -29 -10.833 -45 -14.5
s-31.667 -5.5 -47 -5.5c-26 0 -46.167 4 -60.5 12s-24.666 18.167 -30.999 30.5s-10 25.833 -11 40.5s-1.5 28.667 -1.5 42v341h-91v62h91z" />
    <glyph glyph-name="u" unicode="u" horiz-adv-x="573" 
d="M413 0l-0.000976562 72.001h-2c-12.667 -22 -28 -39.167 -46 -51.5s-35.5 -21.5 -52.5 -27.5s-32.333 -9.66699 -46 -11s-22.834 -2 -27.501 -2c-37.333 0 -67.166 6.33301 -89.499 19s-39.166 28.667 -50.499 48s-18.666 40 -21.999 62s-5 42.667 -5 62v337h88v-311
c0 -32 2.66699 -58 8 -78s12.666 -35.833 21.999 -47.5s20.5 -19.5 33.5 -23.5s27.5 -6 43.5 -6c36.667 0 65 8.16699 85 24.5s34.5 35.166 43.5 56.499s14.167 42.333 15.5 63s2 35.667 2 45v277h88v-508h-88z" />
    <glyph glyph-name="v" unicode="v" horiz-adv-x="470" 
d="M379 508h95l-188 -508h-102l-188 508h95l144 -420z" />
    <glyph glyph-name="w" unicode="w" horiz-adv-x="720" 
d="M254 0h-94l-164 508h91l124 -407l106 407h86l106 -407l124 407h91l-164 -508h-94l-106 407z" />
    <glyph glyph-name="x" unicode="x" horiz-adv-x="484" 
d="M372 508h98l-178 -243l192 -265h-98l-144 209l-144 -209h-98l192 265l-178 243h98l130 -188z" />
    <glyph glyph-name="y" unicode="y" horiz-adv-x="498" 
d="M91 -119c13.333 -2 22.998 -3.33301 28.998 -4s11 -1 15 -1c12.667 0 23.334 2.33301 32.001 7s16 11 22 19s10.833 17.167 14.5 27.5l11.5 32.5l12 38l-220 508h105l163 -411l135 411h88l-202 -568l-14 -40.5c-5.33301 -15 -12.833 -29 -22.5 -42s-22.167 -24 -37.5 -33
s-35 -13.5 -59 -13.5c-14 0 -27.167 0.333008 -39.5 1s-23.166 2 -32.499 4v65z" />
    <glyph glyph-name="z" unicode="z" horiz-adv-x="468" 
d="M427 508v-62l-295 -384h310v-62h-416v62l304 384h-283v62h380z" />
    <glyph glyph-name="braceleft" unicode="{" horiz-adv-x="366" 
d="M75 290c8 0.666992 17.167 3.00684 27.5 7.00684s20 10.833 29 20.5s16.667 23.167 23 40.5s9.5 39.666 9.5 66.999c0 9.33301 -0.166992 18.333 -0.5 27s-0.833008 17.667 -1.5 27s-1.16699 18.166 -1.5 26.499s-0.5 17.166 -0.5 26.499c0 15.333 1.5 32.333 4.5 51
s10 36.167 21 52.5s26.667 30.666 47 42.999s48.166 19.5 83.499 21.5v-53c-46.667 -10 -70 -41.667 -70 -95c0 -17.333 1 -35 3 -53c2 -19.333 3 -38.333 3 -57c0 -46 -9.16699 -83.5 -27.5 -112.5s-47.833 -52.833 -88.5 -71.5v-2c40.667 -18.667 70.167 -42.5 88.5 -71.5
s27.5 -66.5 27.5 -112.5c0 -19.333 -1 -38.333 -3 -57c-2 -18 -3 -35.667 -3 -53c0 -53.333 23.333 -85 70 -95v-53c-35.333 2 -63.166 9.16699 -83.499 21.5s-36 26.666 -47 42.999s-18 33.833 -21 52.5s-4.5 35.667 -4.5 51c0 9.33301 0.166992 18.166 0.5 26.499
s0.833008 17.166 1.5 26.499s1.16699 18.333 1.5 27s0.5 17.667 0.5 27c0 27.333 -3.16699 49.666 -9.5 66.999s-14 30.833 -23 40.5s-18.667 16.334 -29 20.001s-19.5 6.16699 -27.5 7.5v66z" />
    <glyph glyph-name="bar" unicode="|" horiz-adv-x="478" 
d="M208 829h62v-1053h-62v1053z" />
    <glyph glyph-name="braceright" unicode="}" horiz-adv-x="366" 
d="M291 224c-8 -1.33301 -17.167 -3.83984 -27.5 -7.50684s-20 -10.334 -29 -20.001s-16.667 -23.167 -23 -40.5s-9.5 -39.666 -9.5 -66.999c0 -9.33301 0.166992 -18.333 0.5 -27s0.833008 -17.667 1.5 -27s1.16699 -18.166 1.5 -26.499s0.5 -17.166 0.5 -26.499
c0 -15.333 -1.5 -32.333 -4.5 -51s-10 -36.167 -21 -52.5s-26.833 -30.666 -47.5 -42.999s-48.334 -19.5 -83.001 -21.5v53c46.667 10 70 41.667 70 95c0 17.333 -1 35 -3 53c-2 18.667 -3 37.667 -3 57c0 46 9.16699 83.5 27.5 112.5s47.833 52.833 88.5 71.5v2
c-40.667 18.667 -70.167 42.5 -88.5 71.5s-27.5 66.5 -27.5 112.5c0 18.667 1 37.667 3 57c2 18 3 35.667 3 53c0 53.333 -23.333 85 -70 95v53c34.667 -2 62.334 -9.16699 83.001 -21.5s36.5 -26.666 47.5 -42.999s18 -33.833 21 -52.5s4.5 -35.667 4.5 -51
c0 -9.33301 -0.166992 -18.166 -0.5 -26.499s-0.833008 -17.166 -1.5 -26.499s-1.16699 -18.333 -1.5 -27s-0.5 -17.667 -0.5 -27c0 -27.333 3.16699 -49.666 9.5 -66.999s14 -30.833 23 -40.5s18.667 -16.5 29 -20.5s19.5 -6.33301 27.5 -7v-66z" />
    <glyph glyph-name="asciitilde" unicode="~" horiz-adv-x="600" 
d="M50 304c4.66699 12.667 10.8359 26.498 18.5029 41.498s17 29 28 42s23.667 23.667 38 32s30.5 12.5 48.5 12.5c15.333 0 30.333 -2 45 -6s28.667 -9.66699 42 -17l103 -55c0.666992 -0.666992 6.16699 -3 16.5 -7s22.166 -6 35.499 -6c4.66699 0 10.667 1 18 3
s14.833 5.83301 22.5 11.5s15.5 13.834 23.5 24.501s15.333 24.667 22 42l39 -16c-4.66699 -13.333 -10.834 -27.333 -18.501 -42s-17 -28.5 -28 -41.5s-23.667 -23.667 -38 -32s-30.5 -12.5 -48.5 -12.5c-15.333 0 -30.333 2 -45 6s-28.667 9.66699 -42 17l-103 55
c-7.33301 3.33301 -15.833 6.33301 -25.5 9s-18.834 4 -27.501 4c-19.333 0 -36.5 -8.16699 -51.5 -24.5s-26.167 -35.166 -33.5 -56.499z" />
    <glyph glyph-name="currency" unicode="&#xa4;" horiz-adv-x="825" 
d="M199 330c0 -29.333 5.5 -57.002 16.5 -83.002s26.167 -48.667 45.5 -68s42 -34.666 68 -45.999s53.667 -17 83 -17c30 0 58 5.66699 84 17s48.667 26.833 68 46.5s34.666 42.334 45.999 68.001s17 53.167 17 82.5s-5.66699 57 -17 83s-26.833 48.833 -46.5 68.5
s-42.5 35.167 -68.5 46.5s-53.667 17 -83 17s-56.833 -5.66699 -82.5 -17s-48.167 -26.833 -67.5 -46.5s-34.666 -42.5 -45.999 -68.5s-17 -53.667 -17 -83zM177 163.998c-19.333 27.333 -32.833 55.335 -40.5 84.002s-11.5 56 -11.5 82c0 20 3.16699 45.167 9.5 75.5
s20.5 60.5 42.5 90.5l-111 112l66 66l110 -112c28.667 22 57.834 37 87.501 45s57.167 12 82.5 12c24 0 45.333 -2.33301 64 -7s35.167 -10 49.5 -16s26.166 -12.167 35.499 -18.5s16.333 -11.5 21 -15.5l111 112l66 -66l-111 -112c19.333 -26.667 33 -54.334 41 -83.001
s12 -56.334 12 -83.001c0 -26 -4 -53.333 -12 -82s-21.667 -56.667 -41 -84l111 -111l-66 -66l-111 111c-5.33301 -4 -12.666 -9.16699 -21.999 -15.5s-21 -12.5 -35 -18.5s-30.333 -11.167 -49 -15.5s-40 -6.5 -64 -6.5c-23.333 0 -44.5 2.16699 -63.5 6.5
s-35.5 9.5 -49.5 15.5s-25.833 12.167 -35.5 18.5s-16.834 11.5 -21.501 15.5l-110 -111l-66 66z" />
    <glyph glyph-name="brokenbar" unicode="&#xa6;" horiz-adv-x="478" 
d="M208 399v430h62v-430h-62zM270 206v-430h-62v430h62z" />
    <glyph glyph-name="section" unicode="&#xa7;" horiz-adv-x="579" 
d="M332 150c10 2.66699 20.666 7.16699 31.999 13.5s22 14.5 32 24.5s18.167 22.333 24.5 37s9.5 32.334 9.5 53.001c0 16.667 -2.83301 32 -8.5 46s-15.5 27 -29.5 39s-33 23.833 -57 35.5s-54.333 24.167 -91 37.5c-35.333 -10 -60.166 -25.833 -74.499 -47.5
s-21.5 -44.834 -21.5 -69.501s4.5 -45 13.5 -61s21.5 -30 37.5 -42s35.333 -23 58 -33zM377.999 557c-0.666992 23.333 -3.83691 41.6709 -9.50391 55.0039s-12.834 23.5 -21.501 30.5s-18 11.5 -28 13.5s-19.667 3 -29 3c-25.333 0 -44.166 -6.66699 -56.499 -20
s-18.5 -30.333 -18.5 -51c0 -18.667 4.33301 -34.167 13 -46.5s20.167 -22.833 34.5 -31.5s30.5 -16.5 48.5 -23.5l55 -22.5c23.333 -10 44.333 -21 63 -33s34.334 -25.5 47.001 -40.5s22.334 -32 29.001 -51s10 -40.833 10 -65.5c0 -28.667 -4.66699 -52.5 -14 -71.5
s-20.5 -34.667 -33.5 -47s-26.5 -21.5 -40.5 -27.5s-25.333 -10.333 -34 -13c16 -5.33301 28.167 -13.5 36.5 -24.5s14.333 -22.5 18 -34.5s5.66699 -23 6 -33s0.5 -16.667 0.5 -20c0 -24 -3.5 -44.333 -10.5 -61s-16 -30.334 -27 -41.001s-23.167 -19.167 -36.5 -25.5
s-26.5 -10.833 -39.5 -13.5s-25 -4.33398 -36 -5.00098s-19.5 -1 -25.5 -1c-39.333 0 -70.166 7 -92.499 21s-39.166 30.5 -50.499 49.5s-18.333 38.5 -21 58.5s-4 36 -4 48l74 -1c-0.666992 -12 0.5 -24.5 3.5 -37.5s8.16699 -24.833 15.5 -35.5s17 -19.5 29 -26.5
s27 -10.5 45 -10.5c18.667 0 34 2.33301 46 7s21.5 10.667 28.5 18s11.667 15.5 14 24.5s3.5 17.833 3.5 26.5c0 17.333 -3.66699 31.666 -11 42.999s-17.166 21.166 -29.499 29.499s-27 15.833 -44 22.5l-54.5 22c-18 7.33301 -36.667 16 -56 26s-37.333 22.833 -54 38.5
s-30.334 34.334 -41.001 56.001s-16 47.834 -16 78.501c0 46.667 11.5 83 34.5 109s51.167 42.667 84.5 50c-19.333 13.333 -33 29.333 -41 48s-12 41.667 -12 69c0 18 3.33301 35 10 51s16.667 30.333 30 43s30 22.667 50 30s43.667 11 71 11
c10 0 24.167 -1.16699 42.5 -3.5s36.5 -8.83301 54.5 -19.5s33.5 -27.334 46.5 -50.001s18.833 -54.334 17.5 -95.001h-74z" />
    <glyph glyph-name="copyright" unicode="&#xa9;" horiz-adv-x="806" 
d="M551 297c-5.33301 -28.667 -14.333 -53.0029 -27 -73.0029s-32.334 -34.667 -59.001 -44c-9.33301 -3.33301 -18.833 -5.5 -28.5 -6.5s-19.5 -1.5 -29.5 -1.5c-12 0 -25.5 1.16699 -40.5 3.5s-29.833 7.5 -44.5 15.5s-28.334 19.5 -41.001 34.5s-22.667 35.167 -30 60.5
c-3.33301 10.667 -5.83301 21.334 -7.5 32.001s-2.5 21.667 -2.5 33c0 16 1.33301 33.167 4 51.5s8 36.166 16 53.499s19.5 32.833 34.5 46.5s35.167 23.834 60.5 30.501c14.667 4 30.334 6 47.001 6c24 0 44.167 -3 60.5 -9s29.833 -13.5 40.5 -22.5
s18.834 -19.333 24.501 -31s9.5 -22.834 11.5 -33.501c0.666992 -3.33301 1.16699 -6.5 1.5 -9.5s0.5 -6.16699 0.5 -9.5h-62c-1.33301 17.333 -6.33301 30.833 -15 40.5s-19.667 16.5 -33 20.5c-8 2.66699 -17.667 4 -29 4c-3.33301 0 -9.33301 -0.666992 -18 -2
s-17.834 -4.83301 -27.501 -10.5s-18.834 -14.5 -27.501 -26.5s-14.667 -29 -18 -51c-1.33301 -8 -2.16602 -16 -2.49902 -24s-0.5 -16 -0.5 -24c0 -40 7.16699 -69.5 21.5 -88.5s30.5 -31.5 48.5 -37.5c4.66699 -1.33301 9.33398 -2.16602 14.001 -2.49902
s9.66699 -0.5 15 -0.5c4.66699 0 10.334 0.333008 17.001 1s13.667 3 21 7s14.166 10 20.499 18s11.5 19 15.5 33c0.666992 2.66699 1.16699 5.33398 1.5 8.00098s0.833008 5.33398 1.5 8.00098h66zM119 349.997c0 -40.667 7.33301 -78.998 22 -114.998
s34.834 -67.5 60.501 -94.5s55.667 -48.333 90 -64s71.5 -23.5 111.5 -23.5c38.667 0 75.167 7.66699 109.5 23s64.5 36.5 90.5 63.5s46.5 58.5 61.5 94.5s22.5 74.667 22.5 116s-7.5 80.166 -22.5 116.499s-35.5 67.833 -61.5 94.5s-56.167 47.667 -90.5 63
s-70.833 23 -109.5 23c-40 0 -77.167 -7.83301 -111.5 -23.5s-64.333 -36.834 -90 -63.501s-45.834 -58.167 -60.501 -94.5s-22 -74.833 -22 -115.5zM53 349.999c0 48 9 93.167 27 135.5s42.833 79.5 74.5 111.5s68.667 57.167 111 75.5s88.166 27.5 137.499 27.5
c48 0 93.167 -9.16699 135.5 -27.5s79.5 -43.333 111.5 -75s57.167 -68.667 75.5 -111s27.5 -87.833 27.5 -136.5s-9.16699 -94.167 -27.5 -136.5s-43.5 -79.333 -75.5 -111s-69.167 -56.667 -111.5 -75s-87.5 -27.5 -135.5 -27.5c-49.333 0 -95.166 9.16699 -137.499 27.5
s-79.333 43.5 -111 75.5s-56.5 69.167 -74.5 111.5s-27 87.5 -27 135.5z" />
    <glyph glyph-name="guillemotleft" unicode="&#xab;" horiz-adv-x="462" 
d="M387 182v-82l-149 131v82l149 131v-82l-106 -90zM211 182v-82l-149 131v82l149 131v-82l-106 -90z" />
    <glyph glyph-name="logicalnot" unicode="&#xac;" horiz-adv-x="600" 
d="M550 386v-202h-62v140h-438v62h500z" />
    <glyph glyph-name="registered" unicode="&#xae;" horiz-adv-x="806" 
d="M340 371l75 -0.000976562c13.333 0 24.166 1.66699 32.499 5s14.833 7.83301 19.5 13.5s7.83398 11.834 9.50098 18.501s2.5 13 2.5 19c0 21.333 -6.5 35.5 -19.5 42.5s-30.167 10.5 -51.5 10.5h-68v-109zM275 527.999h155c9.33301 0 20.5 -1 33.5 -3
s25.5 -6.5 37.5 -13.5s22.333 -17.167 31 -30.5s13 -31.333 13 -54c0 -6 -0.666992 -12.5 -2 -19.5s-4 -14.167 -8 -21.5s-10 -14.333 -18 -21s-18.333 -12.667 -31 -18v-2c11.333 -2 20.166 -6 26.499 -12s11.166 -12.833 14.499 -20.5s5.5 -16 6.5 -25
s1.83301 -17.833 2.5 -26.5c0.666992 -13.333 1.16699 -24.333 1.5 -33s0.833008 -15.834 1.5 -21.501s1.83398 -10.667 3.50098 -15s4.16699 -8.83301 7.5 -13.5h-67c-3.33301 3.33301 -5.66602 6.66602 -6.99902 9.99902s-2.33301 7.83301 -3 13.5
s-1.16699 12.834 -1.5 21.501s-0.833008 20.334 -1.5 35.001c0 8 -0.666992 15.833 -2 23.5s-4.5 14.667 -9.5 21s-12.5 11.333 -22.5 15s-24.333 5.5 -43 5.5h-53v-145h-65v350zM119 349.999c0 -41.333 7.49707 -80 22.4971 -116s35.333 -67.333 61 -94
s55.667 -47.834 90 -63.501s71.166 -23.5 110.499 -23.5s76.333 7.83301 111 23.5s64.834 36.834 90.501 63.501s45.834 58 60.501 94s22 74.667 22 116s-7.5 80 -22.5 116s-35.333 67.5 -61 94.5s-55.667 48.167 -90 63.5s-71.166 23 -110.499 23
s-76.166 -7.66699 -110.499 -23s-64.333 -36.5 -90 -63.5s-46 -58.5 -61 -94.5s-22.5 -74.667 -22.5 -116zM52.9971 349.999c0 48 9.16699 93.333 27.5 136s43.333 79.834 75 111.501s68.834 56.667 111.501 75s88 27.5 136 27.5c48.667 0 94.334 -9.16699 137.001 -27.5
s79.667 -43.333 111 -75s56.166 -68.834 74.499 -111.501s27.5 -88 27.5 -136s-9.16699 -93.333 -27.5 -136s-43.166 -79.834 -74.499 -111.501s-68.333 -56.667 -111 -75s-88.334 -27.5 -137.001 -27.5c-48 0 -93.333 9.16699 -136 27.5s-79.834 43.333 -111.501 75
s-56.667 68.834 -75 111.501s-27.5 88 -27.5 136z" />
    <glyph glyph-name="degree" unicode="&#xb0;" horiz-adv-x="266" 
d="M83 605c0 -13.333 5 -25 15 -35s21.667 -15 35 -15s25 5 35 15s15 21.667 15 35s-5 25 -15 35s-21.667 15 -35 15s-25 -5 -35 -15s-15 -21.667 -15 -35zM37 605c0 26.667 9.33301 49.334 28 68.001s41.334 28 68.001 28s49.334 -9.33301 68.001 -28
s28 -41.334 28 -68.001s-9.33301 -49.334 -28 -68.001s-41.334 -28 -68.001 -28s-49.334 9.33301 -68.001 28s-28 41.334 -28 68.001z" />
    <glyph glyph-name="plusminus" unicode="&#xb1;" horiz-adv-x="600" 
d="M550 142v-62h-500v62h500zM269 451v199h62v-199h219v-62h-219v-179h-62v179h-219v62h219z" />
    <glyph glyph-name="mu" unicode="&#xb5;" 
d="M173 -185l-88.0039 0.00390625v693h88v-277c0 -9.33301 0.5 -24 1.5 -44s5 -40.167 12 -60.5s18.5 -38.166 34.5 -53.499s39 -23 69 -23c28.667 0 50.834 7 66.501 21s27.167 30.667 34.5 50s11.833 39.166 13.5 59.499s2.5 37.166 2.5 50.499v277h88v-386
c0 -7.33301 0.333008 -14.833 1 -22.5s2.33398 -14.5 5.00098 -20.5s6.83398 -10.833 12.501 -14.5s13.834 -4.83398 24.501 -3.50098l10 1v-62c-10 -1.33301 -18.333 -2.33301 -25 -3s-12.667 -1 -18 -1c-20.667 0 -37.334 2 -50.001 6s-22.5 9.16699 -29.5 15.5
s-11.833 13.333 -14.5 21s-4 15.5 -4 23.5c-8.66699 -16.667 -18 -30.334 -28 -41.001s-20.167 -19 -30.5 -25s-20.5 -10.167 -30.5 -12.5s-19.333 -3.5 -28 -3.5c-22 0 -43.667 6.16699 -65 18.5s-38.666 30.166 -51.999 53.499v-237z" />
    <glyph glyph-name="mu" unicode="&#x3bc;" 
d="M173 -185l-88.0039 0.00390625v693h88v-277c0 -9.33301 0.5 -24 1.5 -44s5 -40.167 12 -60.5s18.5 -38.166 34.5 -53.499s39 -23 69 -23c28.667 0 50.834 7 66.501 21s27.167 30.667 34.5 50s11.833 39.166 13.5 59.499s2.5 37.166 2.5 50.499v277h88v-386
c0 -7.33301 0.333008 -14.833 1 -22.5s2.33398 -14.5 5.00098 -20.5s6.83398 -10.833 12.501 -14.5s13.834 -4.83398 24.501 -3.50098l10 1v-62c-10 -1.33301 -18.333 -2.33301 -25 -3s-12.667 -1 -18 -1c-20.667 0 -37.334 2 -50.001 6s-22.5 9.16699 -29.5 15.5
s-11.833 13.333 -14.5 21s-4 15.5 -4 23.5c-8.66699 -16.667 -18 -30.334 -28 -41.001s-20.167 -19 -30.5 -25s-20.5 -10.167 -30.5 -12.5s-19.333 -3.5 -28 -3.5c-22 0 -43.667 6.16699 -65 18.5s-38.666 30.166 -51.999 53.499v-237z" />
    <glyph glyph-name="paragraph" unicode="&#xb6;" horiz-adv-x="491" 
d="M362 700h62v-885h-62v885zM205 370c-23.333 0.666992 -44.999 5.16504 -64.999 13.498s-37.333 19.833 -52 34.5s-26.334 31.834 -35.001 51.501s-13 41.5 -13 65.5c0 22.667 4.33301 44.167 13 64.5s20.5 37.833 35.5 52.5s32.5 26.334 52.5 35.001s41.333 13 64 13h62
v-885h-62v555z" />
    <glyph glyph-name="periodcentered" unicode="&#xb7;" horiz-adv-x="311" 
d="M106 323h99v-110h-99v110z" />
    <glyph glyph-name="periodcentered" unicode="&#x2219;" horiz-adv-x="311" 
d="M106 323h99v-110h-99v110z" />
    <glyph glyph-name="guillemotright" unicode="&#xbb;" horiz-adv-x="462" 
d="M75 362v82l149 -131v-82l-149 -131v82l106 90zM251 362v82l149 -131v-82l-149 -131v82l106 90z" />
    <glyph glyph-name="circumflex" unicode="&#x2c6;" horiz-adv-x="470" 
d="M301 700l119 -132h-88l-97 99l-97 -99h-88l119 132h132z" />
    <glyph glyph-name="tilde" unicode="&#x2dc;" horiz-adv-x="470" 
d="M420 700c-2 -10 -5.33398 -20.999 -10.001 -32.999s-11.334 -23.167 -20.001 -33.5s-19.667 -18.833 -33 -25.5s-29.333 -10 -48 -10c-16 0 -30.5 2.66699 -43.5 8s-25.833 11.333 -38.5 18l-32.5 16c-11 5.33301 -22.5 8 -34.5 8c-10.667 0 -21.5 -2.83301 -32.5 -8.5
s-17.167 -16.167 -18.5 -31.5h-59c4.66699 26 16.334 49.167 35.001 69.5s44 30.5 76 30.5c17.333 0 31.833 -2.33301 43.5 -7s23.167 -10.334 34.5 -17.001c10 -6 21 -11.833 33 -17.5s24.333 -8.5 37 -8.5s23.834 4 33.501 12s16.167 18 19.5 30h58z" />
    <glyph glyph-name="afii10023" unicode="&#x401;" horiz-adv-x="613" 
d="M403 851h94v-79h-94v79zM187 851h94v-79h-94v79zM546 401v-79h-367v-243h417v-79h-511v700h500v-79h-406v-220h367z" />
    <glyph glyph-name="afii10051" unicode="&#x402;" horiz-adv-x="756" 
d="M13 700l526.997 -0.000976562v-79h-227v-225c8.66699 0.666992 19.834 1.33398 33.501 2.00098l42 2l42.5 2c14 0.666992 25.667 1 35 1c52.667 0 95.167 -6.66699 127.5 -20s57.166 -30 74.499 -50s28.833 -42 34.5 -66s8.5 -46.667 8.5 -68
c0 -66 -18.5 -117.833 -55.5 -155.5s-88.833 -56.5 -155.5 -56.5c-16.667 0 -31.167 1.16699 -43.5 3.5s-24.166 5.5 -35.499 9.5v79c11.333 -3.33301 23.166 -6.33301 35.499 -9s24.166 -4 35.499 -4c10.667 0 23.334 1.33301 38.001 4s28.334 8.33398 41.001 17.001
s23.5 21.334 32.5 38.001s13.5 39 13.5 67c0 18 -2.16699 35 -6.5 51s-12.666 30 -24.999 42s-29.5 21.5 -51.5 28.5s-50.667 10.5 -86 10.5c-10 0 -21.167 -0.333008 -33.5 -1l-37.5 -2c-12.667 -0.666992 -24.667 -1.33398 -36 -2.00098
s-20.666 -1.33398 -27.999 -2.00098v-317h-94v621h-206v79z" />
    <glyph glyph-name="afii10052" unicode="&#x403;" horiz-adv-x="544" 
d="M386 878l-96 -132h-80l70 132h106zM179 0h-94v700h446v-79h-352v-621z" />
    <glyph glyph-name="afii10053" unicode="&#x404;" horiz-adv-x="724" 
d="M490 321l-345.004 0.000976562c1.33301 -41.333 6.33301 -76.5 15 -105.5s19.667 -53.333 33 -73s28.166 -35 44.499 -46s33 -19.333 50 -25s33.5 -9.33398 49.5 -11.001s30 -2.5 42 -2.5c35.333 0 65 5.66699 89 17s43.833 26 59.5 44s27.334 37.833 35.001 59.5
s13.167 43.167 16.5 64.5h100c-3.33301 -26 -10.166 -54.333 -20.499 -85s-26.833 -59.334 -49.5 -86.001s-52.5 -48.834 -89.5 -66.501s-83.833 -26.5 -140.5 -26.5c-49.333 0 -91.666 6.16699 -126.999 18.5s-65.333 28.5 -90 48.5s-44.667 43.167 -60 69.5
s-27.166 53.5 -35.499 81.5s-14 56 -17 84s-4.5 53.667 -4.5 77c0 37.333 4.5 77.333 13.5 120s25.5 82 49.5 118s57.333 65.833 100 89.5s97.667 35.5 165 35.5c52.667 0 97 -7.33301 133 -22s65.167 -33.167 87.5 -55.5s38.833 -46.666 49.5 -72.999
s17.334 -51.166 20.001 -74.499h-100c-2.66699 14.667 -7.66699 30.667 -15 48s-18.333 33.166 -33 47.499s-33.667 26.333 -57 36s-52.333 14.5 -87 14.5c-39.333 0 -73 -6.66699 -101 -20s-51.167 -31.166 -69.5 -53.499s-32 -48 -41 -77s-13.833 -59.5 -14.5 -91.5h345
v-79z" />
    <glyph glyph-name="afii10054" unicode="&#x405;" horiz-adv-x="656" 
d="M139 222c-0.666992 -23.333 3.3291 -44.9951 11.9961 -64.9951s21.667 -37.333 39 -52s38.5 -26.167 63.5 -34.5s53.5 -12.5 85.5 -12.5c31.333 0 57.833 3.66699 79.5 11s39.334 17 53.001 29s23.667 25.833 30 41.5s9.5 31.834 9.5 48.501
c0 21.333 -4.33301 39.166 -13 53.499s-19.667 26 -33 35s-28.5 16.167 -45.5 21.5s-33.5 9.66602 -49.5 12.999l-114.5 24.5c-36.333 7.66699 -68.333 18.5 -96 32.5s-49.667 32.833 -66 56.5s-24.5 55.5 -24.5 95.5c0 32.667 6.33301 61.667 19 87s30.667 46.333 54 63
s51.333 29.334 84 38.001s68.667 13 108 13c43.333 0 80.833 -5.5 112.5 -16.5s58 -25.833 79 -44.5s37 -40.334 48 -65.001s17.5 -50.334 19.5 -77.001h-94c-3.33301 28.667 -11.833 51.334 -25.5 68.001s-29.167 29.167 -46.5 37.5s-35 13.5 -53 15.5s-32.333 3 -43 3
c-48.667 0 -87.834 -10.5 -117.501 -31.5s-44.5 -49.5 -44.5 -85.5c0 -21.333 4.83301 -38.5 14.5 -51.5s22.5 -23.667 38.5 -32s34.5 -14.833 55.5 -19.5s43.167 -9.33398 66.5 -14.001c31.333 -6 62.833 -12.833 94.5 -20.5s60.334 -19.167 86.001 -34.5
s46.5 -35.833 62.5 -61.5s24 -59.5 24 -101.5c0 -34.667 -5.5 -64 -16.5 -88s-25.167 -43.833 -42.5 -59.5s-36.666 -27.834 -57.999 -36.501s-42.166 -15 -62.499 -19s-39.333 -6.33301 -57 -7s-31.167 -1 -40.5 -1c-24.667 0 -53.167 2.33301 -85.5 7
s-63.166 15.167 -92.499 31.5s-54.5 40.666 -75.5 72.999s-32.833 76.166 -35.5 131.499h94z" />
    <glyph glyph-name="afii10056" unicode="&#x407;" horiz-adv-x="304" 
d="M183 851h94v-79h-94v79zM27 851h94v-79h-94v79zM199 700v-700h-94v700h94z" />
    <glyph glyph-name="afii10057" unicode="&#x408;" horiz-adv-x="520" 
d="M117 232c0 -28 2.00098 -52.6689 6.00098 -74.002s10.5 -39.5 19.5 -54.5s21.167 -26.333 36.5 -34s35 -11.5 59 -11.5c24.667 0 44.667 4.33301 60 13s27.166 20.667 35.499 36s13.833 33.833 16.5 55.5s4 45.167 4 70.5v467h94v-458c0 -46 -3.83301 -85.5 -11.5 -118.5
s-19.834 -60.167 -36.501 -81.5s-38.5 -37.166 -65.5 -47.499s-59.5 -15.5 -97.5 -15.5c-18 0 -39.167 1.83301 -63.5 5.5s-47.666 12.834 -69.999 27.501s-41.333 36.5 -57 65.5s-23.5 68.5 -23.5 118.5v36h94z" />
    <glyph glyph-name="afii10058" unicode="&#x409;" horiz-adv-x="1078" 
d="M617 79l189.001 -0.000976562c6 0 16.667 0.833008 32 2.5s31.166 6.83398 47.499 15.501s30.833 21.5 43.5 38.5s19 41.167 19 72.5c0 38 -11.833 68.833 -35.5 92.5s-63.167 35.5 -118.5 35.5h-177v-257zM14.001 81.999c4 -1.33301 8.16504 -1.99805 12.498 -1.99805
h12.5c29.333 0 53.166 9.5 71.499 28.5s32.5 43.833 42.5 74.5s16.833 65 20.5 103s5.5 75.667 5.5 113v301h438v-285h201c6.66699 0 16.834 -0.5 30.501 -1.5s29 -3.66699 46 -8s34.333 -10.833 52 -19.5s34 -20.834 49 -36.501s27.167 -35.334 36.5 -59.001
s14 -52.167 14 -85.5c0 -14 -2.16699 -32.667 -6.5 -56s-14.166 -46 -29.499 -68s-38.166 -41 -68.499 -57s-71.5 -24 -123.5 -24h-295v621h-251v-242c0 -53.333 -3.5 -103.333 -10.5 -150s-19 -87.167 -36 -121.5s-39.833 -61.333 -68.5 -81s-65 -29.5 -109 -29.5
c-12 0 -23.333 1 -34 3v82z" />
    <glyph glyph-name="afii10059" unicode="&#x40a;" horiz-adv-x="1083" 
d="M625 79l190.001 -0.000976562c5.33301 0 15.666 0.833008 30.999 2.5s31 6.83398 47 15.501s30.333 21.5 43 38.5s19 41.167 19 72.5c0 46 -13.5 78.833 -40.5 98.5s-64.167 29.5 -111.5 29.5h-178v-257zM179.001 -0.000976562l-94.001 0.00195312v700h94v-285h352v285
h94v-285h201c5.33301 0 14.666 -0.5 27.999 -1.5s28.333 -3.66699 45 -8s33.834 -10.833 51.501 -19.5s34 -20.834 49 -36.501s27.333 -35.334 37 -59.001s14.5 -52.167 14.5 -85.5c0 -22.667 -3.16699 -46 -9.5 -70s-17.833 -46 -34.5 -66s-39.667 -36.5 -69 -49.5
s-66.666 -19.5 -111.999 -19.5h-295v336h-352v-336z" />
    <glyph glyph-name="afii10060" unicode="&#x40b;" horiz-adv-x="800" 
d="M616 0l0.000976562 205c0 27.333 -3.33301 48.833 -10 64.5s-17 27.5 -31 35.5s-31.5 13.167 -52.5 15.5s-45.833 3.5 -74.5 3.5c-18 0 -39.667 -0.833008 -65 -2.5l-70 -4.5v-317h-94v621h-206v79h527v-79h-227v-225c9.33301 0.666992 20.666 1.33398 33.999 2.00098
l41.5 2l42 2c13.667 0.666992 25.5 1 35.5 1c50 0 90.833 -3.33301 122.5 -10s56.5 -17.334 74.5 -32.001s30.333 -33.667 37 -57s10 -51.333 10 -84v-220h-94z" />
    <glyph glyph-name="afii10061" unicode="&#x40c;" horiz-adv-x="627" 
d="M427 878l-96 -132h-80l70 132h106zM494 700h115l-333 -324l355 -376h-123l-329 365v-365h-94v700h94v-319z" />
    <glyph glyph-name="afii10062" unicode="&#x40e;" horiz-adv-x="588" 
d="M196 878c1.33301 -20 9.66992 -38.167 25.0029 -54.5s39.666 -24.5 72.999 -24.5s57.666 8.16699 72.999 24.5s23.666 34.5 24.999 54.5h74c-2 -13.333 -6.33301 -27.666 -13 -42.999s-16.667 -29.666 -30 -42.999s-30.5 -24.333 -51.5 -33s-46.833 -13 -77.5 -13
c-31.333 0 -57.333 4.33301 -78 13s-37.667 19.667 -51 33s-23.333 27.666 -30 42.999s-11 29.666 -13 42.999h74zM493.004 700l98.998 -0.00195312l-237 -575c-14 -33.333 -28.5 -59.166 -43.5 -77.499s-30.167 -31.666 -45.5 -39.999s-30.5 -13.333 -45.5 -15
s-29.5 -2.5 -43.5 -2.5c-15.333 0 -28.5 0.666992 -39.5 2s-23.833 4 -38.5 8v82c11.333 -4 22.333 -6.83301 33 -8.5s21.667 -2.5 33 -2.5c10 0 19.833 0.833008 29.5 2.5s19.334 6 29.001 13s18.834 17.333 27.501 31s16.667 32.5 24 56.5l-266 526h115l201 -421z" />
    <glyph glyph-name="afii10145" unicode="&#x40f;" horiz-adv-x="724" 
d="M540 700h94v-700h-227v-189h-90v189h-227v700h94v-621h356v621z" />
    <glyph glyph-name="afii10017" unicode="&#x410;" horiz-adv-x="622" 
d="M433 260l-122 345l-122 -345h244zM97 0h-101l265 700h100l265 -700h-101l-66 181h-296z" />
    <glyph glyph-name="afii10018" unicode="&#x411;" horiz-adv-x="668" 
d="M179 79h195.997c18.667 0 37.334 1.66699 56.001 5s35.5 9.5 50.5 18.5s27.167 21.5 36.5 37.5s14 36.667 14 62c0 28 -5 50.5 -15 67.5s-22.667 30.167 -38 39.5s-32.166 15.5 -50.499 18.5s-36.166 4.5 -53.499 4.5h-196v-253zM178.997 411l215.003 0.00195312
c11.333 0 25.166 -0.5 41.499 -1.5s33.166 -3.83301 50.499 -8.5s34.5 -11.334 51.5 -20.001s32.167 -20.834 45.5 -36.501s24.166 -35 32.499 -58s12.5 -50.833 12.5 -83.5c0 -23.333 -3.33301 -47 -10 -71s-18.667 -45.833 -36 -65.5s-41 -35.667 -71 -48
s-68.667 -18.5 -116 -18.5h-310v700h497v-79h-403v-210z" />
    <glyph glyph-name="afii10019" unicode="&#x412;" horiz-adv-x="689" 
d="M179 79l195.001 0.00390625c16 0 33.5 1.16699 52.5 3.5s36.5 7.66602 52.5 15.999s29.333 20.666 40 36.999s16 38.833 16 67.5c0 22.667 -3.83301 41.667 -11.5 57s-18.5 27.666 -32.5 36.999s-30.833 16.166 -50.5 20.499s-41.834 6.5 -66.501 6.5h-195v-245z
M179.001 403.004h188.999c26 0 47.667 3 65 9s31.333 14 42 24s18.334 21.5 23.001 34.5s7 26.833 7 41.5c0 10 -1.5 21.333 -4.5 34s-9.16699 24.5 -18.5 35.5s-22.833 20.333 -40.5 28s-41.167 11.5 -70.5 11.5h-192v-218zM392 700.004c42.667 0 77.5 -5.5 104.5 -16.5
s48.167 -25 63.5 -42s26 -36 32 -57s9 -41.833 9 -62.5c0 -18.667 -3 -36.5 -9 -53.5s-14.333 -32.167 -25 -45.5s-23 -24.5 -37 -33.5s-29.333 -14.833 -46 -17.5v-3c14.667 -2.66699 30.5 -7.33398 47.5 -14.001s32.833 -16.667 47.5 -30s27 -30.5 37 -51.5
s15 -47.167 15 -78.5c0 -25.333 -3.66699 -49.666 -11 -72.999s-20.5 -44 -39.5 -62s-44.5 -32.5 -76.5 -43.5s-73 -16.5 -123 -16.5h-296v700h307z" />
    <glyph glyph-name="afii10020" unicode="&#x413;" horiz-adv-x="544" 
d="M179 0h-94v700h446v-79h-352v-621z" />
    <glyph glyph-name="afii10021" unicode="&#x414;" horiz-adv-x="738" 
d="M290 621l0.00292969 -87.001c0 -46 -1.83301 -89.333 -5.5 -130s-9.83398 -79.5 -18.501 -116.5s-20.334 -72.667 -35.001 -107s-33.334 -68.166 -56.001 -101.499h355v542h-240zM725.003 78.999l-9.00098 -236.998h-82v158h-544v-158h-82l-8 237h63
c16 20 32 43.833 48 71.5s30.333 60.667 43 99s22.834 82.666 30.501 132.999s11.5 108.166 11.5 173.499v144h428v-621h101z" />
    <glyph glyph-name="afii10022" unicode="&#x415;" horiz-adv-x="612" 
d="M546 401v-79h-367v-243h416v-79h-510v700h499v-79h-405v-220h367z" />
    <glyph glyph-name="afii10024" unicode="&#x416;" horiz-adv-x="908" 
d="M407 349l-297 -349h-114l323 375l-309 325h112l285 -308v308h94v-308l285 308h112l-309 -325l323 -375h-114l-297 349v-349h-94v349z" />
    <glyph glyph-name="afii10025" unicode="&#x417;" horiz-adv-x="667" 
d="M139 215c1.33301 -17.333 5 -35.168 11 -53.501s16.167 -35.166 30.5 -50.499s34.166 -28 59.499 -38s58 -15 98 -15c34.667 0 63.167 4.33301 85.5 13s40.166 19.667 53.499 33s22.666 28.333 27.999 45s8 32.667 8 48c0 14.667 -2 29.834 -6 45.501
s-11.833 29.834 -23.5 42.501s-27.834 23.167 -48.501 31.5s-48 12.5 -82 12.5h-92v79h83c8 0 19.833 0.666992 35.5 2s31.334 5.66602 47.001 12.999s29.334 18.333 41.001 33s17.5 35.667 17.5 63c0 30 -7 53.333 -21 70s-30.167 29 -48.5 37s-36.333 12.667 -54 14
s-30.167 2 -37.5 2s-20.166 -0.833008 -38.499 -2.5s-37.166 -6.66699 -56.499 -15s-36.833 -21.666 -52.5 -39.999s-24.167 -44.5 -25.5 -78.5h-94c2 34 8.33301 63 19 87s24 43.833 40 59.5s33.5 28.167 52.5 37.5s38.333 16.166 58 20.499s38.667 7.16602 57 8.49902
s34.166 2 47.499 2c38 0 72.333 -4 103 -12s56.834 -20 78.501 -36s38.5 -36.333 50.5 -61s18 -53.667 18 -87c0 -38 -10.667 -71.167 -32 -99.5s-50.333 -45.833 -87 -52.5v-2c54 -12.667 92 -35 114 -67s33 -70.667 33 -116c0 -23.333 -3.83301 -47.333 -11.5 -72
s-21.334 -47.167 -41.001 -67.5s-46.667 -37 -81 -50s-78.166 -19.5 -131.499 -19.5c-60 0 -109.167 7.16699 -147.5 21.5s-68.5 32.833 -90.5 55.5s-37.333 48 -46 76s-13.667 55.667 -15 83h94z" />
    <glyph glyph-name="afii10026" unicode="&#x418;" horiz-adv-x="731" 
d="M552 700h94v-700h-94v567l-373 -567h-94v700h94v-563z" />
    <glyph glyph-name="afii10027" unicode="&#x419;" horiz-adv-x="731" 
d="M269 858c0.666992 -10 2.83008 -19.667 6.49707 -29s9.5 -17.666 17.5 -24.999s18 -13.333 30 -18s26.333 -7 43 -7s31 2.33301 43 7s22 10.667 30 18s13.833 15.666 17.5 24.999s5.83398 19 6.50098 29h75c-5.33301 -25.333 -13.666 -46.333 -24.999 -63
s-24.5 -30.167 -39.5 -40.5s-31.667 -17.666 -50 -21.999s-37.5 -6.5 -57.5 -6.5s-39.167 2.16699 -57.5 6.5s-35 11.666 -50 21.999s-28.167 23.833 -39.5 40.5s-19.666 37.667 -24.999 63h75zM551.996 700h94v-700h-94v567l-373 -567h-94v700h94v-563z" />
    <glyph glyph-name="afii10028" unicode="&#x41a;" horiz-adv-x="627" 
d="M494 700h115l-333 -324l355 -376h-123l-329 365v-365h-94v700h94v-319z" />
    <glyph glyph-name="afii10029" unicode="&#x41b;" horiz-adv-x="702" 
d="M13 82c22.667 -4 44.001 -2.16699 64.001 5.5s37.5 23.5 52.5 47.5s26.833 57.5 35.5 100.5s13 97.5 13 163.5v301h439v-700h-94v621h-251v-242c0 -81.333 -7 -147.833 -21 -199.5s-32.667 -91.667 -56 -120s-50.833 -46.833 -82.5 -55.5s-64.834 -10 -99.501 -4v82z" />
    <glyph glyph-name="afii10030" unicode="&#x41c;" horiz-adv-x="890" 
d="M179 588h-2l2 -27v-561h-94v700h141l219 -576l219 576h141v-700h-94v561l2 27h-3l-227 -588h-76z" />
    <glyph glyph-name="afii10031" unicode="&#x41d;" horiz-adv-x="710" 
d="M179 0h-94v700h94v-292h352v292h94v-700h-94v329h-352v-329z" />
    <glyph glyph-name="afii10032" unicode="&#x41e;" horiz-adv-x="758" 
d="M145 350c0 -28 2.82812 -58.9971 8.49512 -92.9971s16.834 -65.833 33.501 -95.5s40.334 -54.334 71.001 -74.001s71 -29.5 121 -29.5c8 0 19.333 0.666992 34 2s30.667 5 48 11s35 15.167 53 27.5s34.333 29.166 49 50.499s26.667 48.5 36 81.5s14 72.833 14 119.5
c0 41.333 -4.66699 79.833 -14 115.5s-23.5 66.5 -42.5 92.5s-43.333 46.5 -73 61.5s-64.5 22.5 -104.5 22.5c-36 0 -66.667 -5.5 -92 -16.5s-46.666 -25.167 -63.999 -42.5s-31.166 -36.833 -41.499 -58.5s-18.166 -43.334 -23.499 -65.001s-8.83301 -42.167 -10.5 -61.5
s-2.5 -35.333 -2.5 -48zM44.9951 350.003c0 61.333 8.33203 115.168 24.999 161.501s39.667 85 69 116s64.5 54.333 105.5 70s85.833 23.5 134.5 23.5c38.667 0 77.834 -6 117.501 -18s75.5 -32.167 107.5 -60.5s58.167 -66.333 78.5 -114s30.5 -107.167 30.5 -178.5
c0 -61.333 -7.33301 -113 -22 -155s-33.167 -76.667 -55.5 -104s-46.833 -48.5 -73.5 -63.5s-52.334 -26.167 -77.001 -33.5s-46.667 -11.666 -66 -12.999s-32.666 -2 -39.999 -2c-8 0 -21.667 0.666992 -41 2s-41.333 5.66602 -66 12.999s-50.334 18.5 -77.001 33.5
s-51.167 36.167 -73.5 63.5s-40.666 62.166 -54.999 104.499s-21.5 93.833 -21.5 154.5z" />
    <glyph glyph-name="afii10033" unicode="&#x41f;" horiz-adv-x="710" 
d="M179 0h-94v700h540v-700h-94v621h-352v-621z" />
    <glyph glyph-name="afii10034" unicode="&#x420;" horiz-adv-x="639" 
d="M179 358h172c56 0 96.667 11.667 122 35s38 58 38 104c0 43.333 -13.167 74.833 -39.5 94.5s-66.5 29.5 -120.5 29.5h-172v-263zM370 700c36 0 68.498 -3.66699 97.498 -11s53.833 -19 74.5 -35s36.667 -36.833 48 -62.5s17 -56.5 17 -92.5
c0 -32.667 -4.33301 -62.5 -13 -89.5s-22.667 -50.167 -42 -69.5s-44.666 -34.333 -75.999 -45s-69.666 -16 -114.999 -16h-182v-279h-94v700h285z" />
    <glyph glyph-name="afii10035" unicode="&#x421;" horiz-adv-x="712" 
d="M674 232c-3.33301 -25.333 -10.002 -52.6709 -20.002 -82.0039s-26.167 -56.666 -48.5 -81.999s-51.833 -46.5 -88.5 -63.5s-83 -25.5 -139 -25.5c-52 0 -98.667 8.16699 -140 24.5s-76.166 40 -104.499 71s-50.166 68.667 -65.499 113s-23 94.5 -23 150.5
c0 62 6.83301 114.5 20.5 157.5s31 78.667 52 107s44.5 50.5 70.5 66.5s51.167 27.833 75.5 35.5s46.5 12.334 66.5 14.001s35 2.5 45 2.5c56 0 102 -7.33301 138 -22s64.833 -33.5 86.5 -56.5s37.334 -48.5 47.001 -76.5s15.834 -55.333 18.501 -82h-94
c-1.33301 12.667 -4.83301 28 -10.5 46s-15.5 35.333 -29.5 52s-33.5 30.834 -58.5 42.501s-57.5 17.5 -97.5 17.5c-44 0 -80.667 -8.5 -110 -25.5s-52.833 -39.5 -70.5 -67.5s-30.334 -60 -38.001 -96s-11.5 -73 -11.5 -111c0 -40.667 5.33301 -78.334 16 -113.001
s26.334 -64.667 47.001 -90s45.5 -45.166 74.5 -59.499s62.167 -21.5 99.5 -21.5c28 0 53.833 4.33301 77.5 13s44.167 20.834 61.5 36.501s31.166 34 41.499 55s16.166 44.167 17.499 69.5h94z" />
    <glyph glyph-name="afii10036" unicode="&#x422;" horiz-adv-x="575" 
d="M13 621v79h549v-79h-227v-621h-94v621h-228z" />
    <glyph glyph-name="afii10037" unicode="&#x423;" horiz-adv-x="588" 
d="M493 700l98.998 -0.00195312l-237 -575c-14 -33.333 -28.5 -59.166 -43.5 -77.499s-30.167 -31.666 -45.5 -39.999s-30.5 -13.333 -45.5 -15s-29.5 -2.5 -43.5 -2.5c-15.333 0 -28.5 0.666992 -39.5 2s-23.833 4 -38.5 8v82c11.333 -4 22.333 -6.83301 33 -8.5
s21.667 -2.5 33 -2.5c10 0 19.833 0.833008 29.5 2.5s19.334 6 29.001 13s18.834 17.333 27.501 31s16.667 32.5 24 56.5l-266 526h115l201 -421z" />
    <glyph glyph-name="afii10038" unicode="&#x424;" horiz-adv-x="890" 
d="M519 153c22.667 0 47.499 2.16797 74.499 6.50098s51.833 13.666 74.5 27.999s41.667 34.833 57 61.5s23 62.667 23 108c0 50 -9.33301 88.667 -28 116s-40.667 47.5 -66 60.5s-50.666 20.667 -75.999 23s-45 3.5 -59 3.5h-27v-407h27zM397.999 560.001h-26
c-38 0 -70 -3.83301 -96 -11.5s-47.5 -17.667 -64.5 -30s-30.167 -26.166 -39.5 -41.499s-16.166 -30.5 -20.499 -45.5s-7 -29 -8 -42s-1.5 -23.833 -1.5 -32.5s0.5 -19.834 1.5 -33.501s3.66699 -28 8 -43s11.166 -30.167 20.499 -45.5s22.5 -29 39.5 -41
s38.5 -21.833 64.5 -29.5s58 -11.5 96 -11.5h26v407zM397.999 79.001l-39.002 0.00390625c-10 0 -24.833 0.666992 -44.5 2s-41.167 5 -64.5 11s-47.333 14.833 -72 26.5s-47 27.834 -67 48.501s-36.5 46.5 -49.5 77.5s-19.5 68.5 -19.5 112.5
c0 9.33301 0.833008 22.666 2.5 39.999s5.83398 36.166 12.501 56.499s16.667 41.333 30 63s31.833 41.167 55.5 58.5s53.167 31.5 88.5 42.5s78 16.5 128 16.5h39v106h94v-106h39c20 0 41.833 -1.33301 65.5 -4s47.167 -7.83398 70.5 -15.501s46 -18 68 -31
s41.333 -29.833 58 -50.5s30 -45.334 40 -74.001s15 -62.667 15 -102c0 -42 -5.83301 -77.833 -17.5 -107.5s-26.667 -54.834 -45 -75.501s-39.166 -37.167 -62.499 -49.5s-46.666 -22 -69.999 -29s-45.833 -11.5 -67.5 -13.5s-39.834 -3 -54.501 -3h-39v-105h-94v105z" />
    <glyph glyph-name="afii10039" unicode="&#x425;" horiz-adv-x="610" 
d="M480 700h117l-232 -342l245 -358h-121l-184 291l-184 -291h-121l245 358l-232 342h117l175 -275z" />
    <glyph glyph-name="afii10040" unicode="&#x426;" horiz-adv-x="739" 
d="M534 79v621h94v-621h98l-7 -237h-82v158h-552v700h94v-621h355z" />
    <glyph glyph-name="afii10041" unicode="&#x427;" horiz-adv-x="636" 
d="M152 700v-205c0 -27.333 3.5 -48.833 10.5 -64.5s17.5 -27.5 31.5 -35.5s31.667 -13.167 53 -15.5s46 -3.5 74 -3.5c10 0 21.167 0.333008 33.5 1l37 2l36 2c11.667 0.666992 21.5 1.33398 29.5 2.00098v317h94v-700h-94v304
c-9.33301 -0.666992 -20.833 -1.33398 -34.5 -2.00098l-42 -2l-42.5 -2c-14 -0.666992 -25.667 -1 -35 -1c-43.333 0 -80.333 2.5 -111 7.5s-56 14.167 -76 27.5s-34.667 32 -44 56s-14 54.667 -14 92v220h94z" />
    <glyph glyph-name="afii10042" unicode="&#x428;" horiz-adv-x="1018" 
d="M462 79v621h94v-621h283v621h94v-700h-848v700h94v-621h283z" />
    <glyph glyph-name="afii10043" unicode="&#x429;" horiz-adv-x="1050" 
d="M179 79h283v621h94v-621h283v621h94v-621h104l-9 -237h-82v158h-861v700h94v-621z" />
    <glyph glyph-name="afii10044" unicode="&#x42a;" horiz-adv-x="718" 
d="M259 79l190.003 -0.000976562c5.33301 0 15.666 0.833008 30.999 2.5s31.166 6.83398 47.499 15.501s30.833 21.5 43.5 38.5s19 41.167 19 72.5c0 18.667 -2.66699 36 -8 52s-14 29.5 -26 40.5s-27.833 19.667 -47.5 26s-43.834 9.5 -72.501 9.5h-177v-257z
M259.003 414.999l201.001 0.000976562c20.667 0 44.167 -2.5 70.5 -7.5s51 -15 74 -30s42.333 -36.333 58 -64s23.5 -63.834 23.5 -108.501c0 -46 -8.33301 -82.5 -25 -109.5s-36.834 -47.5 -60.501 -61.5s-48.5 -23.167 -74.5 -27.5s-48 -6.5 -66 -6.5h-295v621h-152v79
h246v-285z" />
    <glyph glyph-name="afii10045" unicode="&#x42b;" horiz-adv-x="858" 
d="M773 700v-700h-94v700h94zM179 79h189c12.667 0 27.167 1.5 43.5 4.5s31.833 9.16699 46.5 18.5s27 22.5 37 39.5s15 39.167 15 66.5c0 32.667 -6.5 57.667 -19.5 75s-29.333 30 -49 38s-40.667 12.5 -63 13.5s-42.5 1.5 -60.5 1.5h-139v-257zM179 415
l202.003 0.000976562c71.333 0 126.666 -18.333 165.999 -55s59 -88.334 59 -155.001c0 -46 -8.16699 -82.5 -24.5 -109.5s-36.333 -47.667 -60 -62s-48.334 -23.5 -74.001 -27.5s-47.834 -6 -66.501 -6h-296v700h94v-285z" />
    <glyph glyph-name="afii10046" unicode="&#x42c;" horiz-adv-x="638" 
d="M179 79h190.002c5.33301 0 15.666 0.833008 30.999 2.5s31.166 6.83398 47.499 15.501s30.833 21.5 43.5 38.5s19 41.167 19 72.5c0 14.667 -2 29.667 -6 45s-11.5 29.166 -22.5 41.499s-26.5 22.333 -46.5 30s-46 11.5 -78 11.5h-178v-257zM179.002 415
l201.001 0.000976562c20.667 0 44.167 -2.5 70.5 -7.5s51 -15 74 -30s42.333 -36.333 58 -64s23.5 -63.834 23.5 -108.501c0 -46 -8.33301 -82.5 -25 -109.5s-36.834 -47.5 -60.501 -61.5s-48.5 -23.167 -74.5 -27.5s-48 -6.5 -66 -6.5h-295v700h94v-285z" />
    <glyph glyph-name="afii10047" unicode="&#x42d;" horiz-adv-x="719" 
d="M574 401c-0.666992 8.66699 -1.83398 20.8301 -3.50098 36.4971s-5.16699 32.334 -10.5 50.001s-13 35.667 -23 54s-23.167 35 -39.5 50s-36.666 27.167 -60.999 36.5s-53.5 14 -87.5 14c-31.333 0 -58.833 -4 -82.5 -12s-43.834 -18.667 -60.501 -32
s-29.667 -28.833 -39 -46.5s-15.333 -36.167 -18 -55.5h-94c2 27.333 9 54.5 21 81.5s29.667 51.167 53 72.5s52.333 38.5 87 51.5s76 19.5 124 19.5c46.667 0 87.167 -5.66699 121.5 -17s64 -26.333 89 -45s45.5 -40.334 61.5 -65.001s28.5 -50.5 37.5 -77.5
s15.333 -54.167 19 -81.5s5.5 -53 5.5 -77c0 -23.333 -1.5 -48.833 -4.5 -76.5s-8.66699 -55.5 -17 -83.5s-20 -55.167 -35 -81.5s-34.833 -49.666 -59.5 -69.999s-54.5 -36.666 -89.5 -48.999s-76.5 -18.5 -124.5 -18.5c-55.333 0 -101.333 8.83301 -138 26.5
s-66.5 39.667 -89.5 66s-40 54.833 -51 85.5s-17.833 59.334 -20.5 86.001h94c2 -14 6.33301 -31.5 13 -52.5s17.834 -41.333 33.501 -61s36.5 -36.5 62.5 -50.5s59.333 -21 100 -21c46 0 83.333 8 112 24s51.167 35.667 67.5 59s27.833 48.333 34.5 75s10.667 51 12 73
c0.666992 10.667 0.666992 21.667 0 33h-330v79h330z" />
    <glyph glyph-name="afii10048" unicode="&#x42e;" horiz-adv-x="993" 
d="M614 58c33.333 0 62.332 4.66699 86.999 14s45.667 21.666 63 36.999s31.5 33 42.5 53s19.5 40.833 25.5 62.5s10.167 43.334 12.5 65.001s3.5 41.834 3.5 60.501c0 43.333 -4 80.666 -12 111.999s-18.5 57.833 -31.5 79.5s-28 39 -45 52s-34.167 23.167 -51.5 30.5
s-34.166 12.166 -50.499 14.499s-30.833 3.5 -43.5 3.5c-12 0 -26.167 -1.16699 -42.5 -3.5s-33.166 -7 -50.499 -14s-34.5 -17.167 -51.5 -30.5s-32 -30.833 -45 -52.5s-23.667 -48.167 -32 -79.5s-12.5 -68.666 -12.5 -111.999c0 -38 4.16699 -74.667 12.5 -110
s21.666 -66.5 39.999 -93.5s42.333 -48.5 72 -64.5s66.167 -24 109.5 -24zM283.999 408c2.66699 38.667 10.999 76.667 24.999 114s34.333 70.666 61 99.999s60 53.166 100 71.499s87.667 27.5 143 27.5c48 0 92.5 -7.83301 133.5 -23.5s76.5 -39 106.5 -70
s53.333 -69.667 70 -116s25 -100.166 25 -161.499c0 -51.333 -6.33301 -99.5 -19 -144.5s-32.5 -84.167 -59.5 -117.5s-61.667 -59.833 -104 -79.5s-93.166 -29.5 -152.499 -29.5c-64 0 -117.167 10.833 -159.5 32.5s-76 49.334 -101 83.001s-42.833 71.167 -53.5 112.5
s-17 82 -19 122h-101v-329h-94v700h94v-292h105z" />
    <glyph glyph-name="afii10049" unicode="&#x42f;" horiz-adv-x="680" 
d="M304 621c-31.333 0 -57.001 -4.16699 -77.001 -12.5s-35.667 -19 -47 -32s-19 -27.167 -23 -42.5s-6 -30 -6 -44s2 -28.833 6 -44.5s11.833 -30 23.5 -43s28.334 -23.833 50.001 -32.5s50.5 -13 86.5 -13h184v264h-197zM341.999 278l-171 -278h-116l190 288
c-16 0.666992 -35 4 -57 10s-42.833 16.5 -62.5 31.5s-36.334 35.5 -50.001 61.5s-20.5 59.333 -20.5 100c0 28.667 4.16699 55.667 12.5 81s21.833 47.5 40.5 66.5s43.334 34 74.001 45s68.667 16.5 114 16.5h299v-700h-94v278h-159z" />
    <glyph glyph-name="afii10065" unicode="&#x430;" horiz-adv-x="553" 
d="M385 260c-6.66699 -5.33301 -13.667 -9.16797 -21 -11.501s-15.333 -4.16602 -24 -5.49902s-18.5 -2.5 -29.5 -3.5s-23.5 -2.5 -37.5 -4.5l-55.5 -9.5c-17.667 -3 -33.167 -7.66699 -46.5 -14s-23.833 -15.5 -31.5 -27.5s-11.5 -28 -11.5 -48
c0 -30 9.16699 -53.167 27.5 -69.5s41.833 -24.5 70.5 -24.5c17.333 0 34.833 2.5 52.5 7.5s34 14 49 27s27.5 30.833 37.5 53.5s16 51.667 18 87zM55 357.998c0 16.667 2.83301 34.999 8.5 54.999s16.334 38.5 32.001 55.5s37.667 31.167 66 42.5s64.833 17 109.5 17
c20.667 0 42.834 -2 66.501 -6s45.667 -12 66 -24s37.166 -29.167 50.499 -51.5s19.666 -52.166 18.999 -89.499l-5 -235c0 -10 0.166992 -18.833 0.5 -26.5s2.16602 -14 5.49902 -19s8.66602 -8.83301 15.999 -11.5s17.666 -3.66699 30.999 -3v-62
c-6 -1.33301 -11.833 -2.33301 -17.5 -3s-13.167 -1 -22.5 -1c-12 0 -23.167 0.833008 -33.5 2.5s-19.333 5 -27 10s-14 12.333 -19 22s-8.83301 22.834 -11.5 39.501c-8.66699 -16 -19.334 -29.667 -32.001 -41s-26.667 -20.666 -42 -27.999s-31.5 -12.666 -48.5 -15.999
s-34.167 -5 -51.5 -5c-53.333 0 -96.5 12.167 -129.5 36.5s-49.5 63.166 -49.5 116.499c0 22 3.33301 41.833 10 59.5s19.334 33.334 38.001 47.001s44 25 76 34s73.667 15.833 125 20.5c18.667 1.33301 34.334 2.66602 47.001 3.99902s22.834 4.16602 30.501 8.49902
s13.167 10.833 16.5 19.5s5 21.334 5 38.001c0 6 -0.666992 14.667 -2 26s-5.66602 22.666 -12.999 33.999s-18.666 21.166 -33.999 29.499s-37 12.5 -65 12.5c-8 0 -19.5 -0.666992 -34.5 -2s-29.833 -5.5 -44.5 -12.5s-27.334 -17.667 -38.001 -32
s-15.667 -34.833 -15 -61.5h-84z" />
    <glyph glyph-name="afii10066" unicode="&#x431;" horiz-adv-x="607" 
d="M151 240c0 -19.333 2.16309 -40.5029 6.49609 -63.5029s12.333 -44.5 24 -64.5s28 -36.667 49 -50s48.167 -20 81.5 -20c52.667 0 92.334 17.667 119.001 53s40 82.333 40 141c0 20 -1.66699 42.833 -5 68.5s-10.5 49.834 -21.5 72.501s-27 41.834 -48 57.501
s-49.167 23.5 -84.5 23.5s-63.666 -7.66699 -84.999 -23s-37.666 -34.166 -48.999 -56.499s-18.666 -46 -21.999 -71s-5 -47.5 -5 -67.5zM522.996 732.997c-2 -33.333 -12 -57.6689 -30 -73.002s-40 -26.333 -66 -33s-53.667 -11 -83 -13s-55.666 -6.33301 -78.999 -13
c-18.667 -5.33301 -36.5 -12.666 -53.5 -21.999s-31.833 -22.166 -44.5 -38.499s-23 -36.666 -31 -60.999s-12.333 -53.833 -13 -88.5h2c4.66699 12.667 11.5 26.5 20.5 41.5s21.167 29 36.5 42s34.5 23.833 57.5 32.5s50.5 13 82.5 13c43.333 0 80.333 -7.83301 111 -23.5
s55.667 -36.167 75 -61.5s33.5 -54.5 42.5 -87.5s13.5 -66.833 13.5 -101.5c0 -33.333 -4.66699 -65.833 -14 -97.5s-24.166 -60 -44.499 -85s-46.333 -45.167 -78 -60.5s-69.5 -23 -113.5 -23c-40.667 0 -75.167 6.16699 -103.5 18.5s-52 28.5 -71 48.5
s-33.833 42.5 -44.5 67.5s-18.834 50.167 -24.501 75.5s-9.16699 49.666 -10.5 72.999s-2 43.333 -2 60c0 67.333 5.33301 122.5 16 165.5s25 77.667 43 104s39.167 45.833 63.5 58.5s50.166 22 77.499 28c34 8 62.333 13.167 85 15.5s41.167 4.5 55.5 6.5s25.333 5 33 9
s13.167 11.667 16.5 23h75z" />
    <glyph glyph-name="afii10067" unicode="&#x432;" horiz-adv-x="539" 
d="M160 62l129 -0.000976562c7.33301 0 17.5 0.5 30.5 1.5s25.667 4 38 9s23 12.833 32 23.5s13.5 25.334 13.5 44.001c0 22 -4.33301 39.333 -13 52s-19 22 -31 28s-24.667 9.83301 -38 11.5s-25 2.5 -35 2.5h-126v-172zM160 295.999h122.001c20.667 0 37.667 2.5 51 7.5
s24 11.167 32 18.5s13.5 15.666 16.5 24.999s4.5 18.333 4.5 27c0 16.667 -3.5 29.834 -10.5 39.501s-15.667 17 -26 22s-21.333 8 -33 9s-21.834 1.5 -30.501 1.5h-126v-150zM314.001 507.999c12.667 0 28.166 -0.833008 46.499 -2.5s36 -6.5 53 -14.5
s31.5 -20.167 43.5 -36.5s18 -38.833 18 -67.5c0 -22.667 -4 -41.334 -12 -56.001s-17.167 -26.5 -27.5 -35.5s-20.666 -15.5 -30.999 -19.5s-17.5 -6.66699 -21.5 -8v-3c24.667 -6 44.334 -14 59.001 -24s25.834 -21 33.501 -33s12.667 -24.667 15 -38s3.5 -26 3.5 -38
c0 -29.333 -5.66699 -52.666 -17 -69.999s-25.833 -30.5 -43.5 -39.5s-37.334 -15 -59.001 -18s-42.834 -4.5 -63.501 -4.5h-239v508h242z" />
    <glyph glyph-name="afii10068" unicode="&#x433;" horiz-adv-x="433" 
d="M160 0h-88v508h348v-62h-260v-446z" />
    <glyph glyph-name="afii10069" unicode="&#x434;" horiz-adv-x="603" 
d="M229 446l-0.000976562 -70.999c0 -23.333 -1.16699 -48.833 -3.5 -76.5s-6.33301 -55.5 -12 -83.5s-13.167 -55.333 -22.5 -82s-20.666 -50.334 -33.999 -71.001h266v384h-194zM63.999 62.001c12.667 18.667 24.167 39.167 34.5 61.5s19 48 26 77s12.5 61.667 16.5 98
s6 77.833 6 124.5v85h364v-446h88l-7 -194h-74v132h-436v-132h-74l-8 194h64z" />
    <glyph glyph-name="afii10070" unicode="&#x435;" horiz-adv-x="570" 
d="M434 296c-0.666992 16.667 -2.99902 35 -6.99902 55s-11.167 38.5 -21.5 55.5s-24.5 31.167 -42.5 42.5s-41.333 17 -70 17c-32 0 -58.333 -5.83301 -79 -17.5s-36.834 -26.167 -48.501 -43.5s-19.5 -35.833 -23.5 -55.5s-6 -37.5 -6 -53.5h298zM522.001 147
c-3.33301 -18 -9.49707 -36.832 -18.4971 -56.499s-22 -37.667 -39 -54s-38.833 -29.833 -65.5 -40.5s-59.667 -16 -99 -16c-42 0 -77.5 5.66699 -106.5 17s-53 25.833 -72 43.5s-33.833 37.167 -44.5 58.5s-18.5 42 -23.5 62s-8 38.333 -9 55s-1.5 28.667 -1.5 36
c0 11.333 0.666992 26.166 2 44.499s4.66602 37.666 9.99902 57.999s13.333 40.833 24 61.5s25.167 39.334 43.5 56.001s41.166 30.167 68.499 40.5s60.666 15.5 99.999 15.5c50.667 0 91.167 -8.83301 121.5 -26.5s53.666 -39.834 69.999 -66.501
s27.333 -55.834 33 -87.501s9.16699 -61.167 10.5 -88.5c0 -4 0.166992 -8.16699 0.5 -12.5s0.5 -8.5 0.5 -12.5h-391c0 -22 3 -44.333 9 -67s15.333 -43.167 28 -61.5s29.167 -33.5 49.5 -45.5s45.166 -18 74.499 -18c20.667 0 39.334 2.83301 56.001 8.5
s30.834 13.334 42.501 23.001s21 20.834 28 33.501s11.833 26 14.5 40h84z" />
    <glyph glyph-name="afii10072" unicode="&#x436;" horiz-adv-x="702" 
d="M307 251l-202 -251h-109l233 267l-220 241h104l194 -230v230h88v-230l194 230h104l-220 -241l233 -267h-109l-202 251v-251h-88v251z" />
    <glyph glyph-name="afii10073" unicode="&#x437;" horiz-adv-x="517" 
d="M116 156c0 -14.667 2.83301 -28.8359 8.5 -42.5029s14 -25.834 25 -36.501s25 -19.167 42 -25.5s36.833 -9.5 59.5 -9.5c38.667 0 70.334 8 95.001 24s37 41.333 37 76c0 22 -4.83301 39.167 -14.5 51.5s-20.834 21.5 -33.501 27.5s-25.334 9.5 -38.001 10.5
s-22.334 1.5 -29.001 1.5h-75v62h65c8.66699 0 19.167 0.666992 31.5 2s24 4.5 35 9.5s20.333 12.833 28 23.5s11.5 25.334 11.5 44.001c0 6.66699 -1 15.167 -3 25.5s-7 20.5 -15 30.5s-19.667 18.5 -35 25.5s-36 10.5 -62 10.5c-25.333 0 -45.666 -3.5 -60.999 -10.5
s-27.333 -15.5 -36 -25.5s-14.667 -20.667 -18 -32s-5 -21.333 -5 -30h-84c2 38 11.5 67.667 28.5 89s36.833 37.166 59.5 47.499s45.167 16.833 67.5 19.5s40.166 4 53.499 4c45.333 0 81.333 -5.66699 108 -17s46.834 -24.833 60.501 -40.5s22.5 -31.834 26.5 -48.501
s6 -30.667 6 -42c0 -20 -3.16699 -36.667 -9.5 -50s-14 -24.166 -23 -32.499s-18.667 -14.666 -29 -18.999s-19.166 -7.5 -26.499 -9.5v-3c13.333 -2 26.333 -6.16699 39 -12.5s24 -14.666 34 -24.999s18.167 -23.166 24.5 -38.499s9.5 -33.333 9.5 -54
c0 -16 -2.83301 -33.167 -8.5 -51.5s-16.5 -35.166 -32.5 -50.499s-38 -28.166 -66 -38.499s-64.333 -15.5 -109 -15.5c-48.667 0 -87.667 6.5 -117 19.5s-52 28.667 -68 47s-26.667 37.666 -32 57.999s-8.33301 37.5 -9 51.5h84z" />
    <glyph glyph-name="afii10074" unicode="&#x438;" horiz-adv-x="595" 
d="M425 508h98v-508h-88v406l-264 -406h-99v508h88v-405z" />
    <glyph glyph-name="afii10075" unicode="&#x439;" horiz-adv-x="595" 
d="M467 700c-2 -10.667 -5.50391 -22.667 -10.5039 -36s-12.5 -26.333 -22.5 -39s-23 -23.834 -39 -33.501s-36 -16.5 -60 -20.5c-13.333 -2 -26.666 -3 -39.999 -3c-25.333 0 -47.166 2.83301 -65.499 8.5s-34.166 13.334 -47.499 23.001s-24.166 20.834 -32.499 33.501
s-14.833 26 -19.5 40c-1.33301 4.66699 -2.5 9.16699 -3.5 13.5s-2.16699 8.83301 -3.5 13.5h75c-0.666992 -4 -0.166992 -10.5 1.5 -19.5s7.16699 -18.833 16.5 -29.5c10 -10.667 21.667 -18.667 35 -24c7.33301 -2.66699 14.666 -4.33398 21.999 -5.00098
s14.666 -1 21.999 -1c26.667 0 49.834 6.83301 69.501 20.5s28.834 33.167 27.501 58.5h75zM424.996 508h98v-508h-88v406l-264 -406h-99v508h88v-405z" />
    <glyph glyph-name="afii10076" unicode="&#x43a;" horiz-adv-x="489" 
d="M377 508h103l-238 -236l251 -272h-105l-228 254v-254h-88v508h88v-222z" />
    <glyph glyph-name="afii10077" unicode="&#x43b;" horiz-adv-x="559" 
d="M13 65c30 -6 53.168 -1.83203 69.501 12.501s28.5 34.166 36.5 59.499s12.667 54.166 14 86.499s2 63.5 2 93.5v191h352v-508h-88v446h-182v-129c0 -44 -1.83301 -87 -5.5 -129s-12.334 -78.333 -26.001 -109s-34.167 -53.667 -61.5 -69s-64.333 -18.666 -111 -9.99902
v65z" />
    <glyph glyph-name="afii10078" unicode="&#x43c;" horiz-adv-x="732" 
d="M160 408h-2l2 -27v-381h-88v508h121l173 -413l173 413h121v-508h-88v381l3 27h-3l-172 -408h-68z" />
    <glyph glyph-name="afii10079" unicode="&#x43d;" horiz-adv-x="571" 
d="M160 0h-88v508h88v-209h251v209h88v-508h-88v237h-251v-237z" />
    <glyph glyph-name="afii10080" unicode="&#x43e;" horiz-adv-x="586" 
d="M136 255c0 -50.667 6.33301 -90.334 19 -119.001s27.667 -50 45 -64s34.666 -22.5 51.999 -25.5s31 -4.5 41 -4.5s23.667 1.5 41 4.5s34.666 11.5 51.999 25.5s32.333 35.333 45 64s19 68.334 19 119.001s-6.33301 90.334 -19 119.001s-27.667 50 -45 64
s-34.666 22.5 -51.999 25.5s-31 4.5 -41 4.5s-23.667 -1.5 -41 -4.5s-34.666 -11.5 -51.999 -25.5s-32.333 -35.333 -45 -64s-19 -68.334 -19 -119.001zM43 254c0 34 4.33301 67.333 13 100s22.834 61.834 42.501 87.501s45.5 46.5 77.5 62.5s71 24 117 24s85 -8 117 -24
s57.833 -36.833 77.5 -62.5s33.834 -54.834 42.501 -87.501s13 -66 13 -100s-4.33301 -67.333 -13 -100s-22.834 -61.834 -42.501 -87.501s-45.5 -46.5 -77.5 -62.5s-71 -24 -117 -24s-85 8 -117 24s-57.833 36.833 -77.5 62.5s-33.834 54.834 -42.501 87.501
s-13 66 -13 100z" />
    <glyph glyph-name="afii10081" unicode="&#x43f;" horiz-adv-x="577" 
d="M160 0h-88v508h433v-508h-88v446h-257v-446z" />
    <glyph glyph-name="afii10082" unicode="&#x440;" horiz-adv-x="597" 
d="M154 252c0 -39.333 4.99902 -72.332 14.999 -98.999s22.833 -48.334 38.5 -65.001s32.667 -28.5 51 -35.5s35.833 -10.5 52.5 -10.5c18 0 35.833 3.5 53.5 10.5s33.667 18.667 48 35s26 38 35 65s13.5 60.833 13.5 101.5c0 65.333 -13.333 117 -40 155s-65 57 -115 57
c-11.333 0 -25.666 -2.16699 -42.999 -6.5s-34 -13.833 -50 -28.5s-29.833 -36.167 -41.5 -64.5s-17.5 -66.5 -17.5 -114.5zM153.999 508.001v-69.999h3c12.667 19.333 26.5 34.833 41.5 46.5s30 20.834 45 27.501s29.5 11 43.5 13s26.667 3 38 3
c31.333 0 60.833 -5.33301 88.5 -16s52 -27.167 73 -49.5s37.5 -50.833 49.5 -85.5s18 -75.667 18 -123c0 -49.333 -6.33301 -91.333 -19 -126s-29.667 -63 -51 -85s-45.666 -38 -72.999 -48s-55.333 -15 -84 -15c-5.33301 0 -14.833 0.666992 -28.5 2
s-28.834 5.16602 -45.501 11.499s-33.5 15.666 -50.5 27.999s-31.167 29.5 -42.5 51.5v-258h-88v693h82z" />
    <glyph glyph-name="afii10083" unicode="&#x441;" horiz-adv-x="548" 
d="M512 181c-1.33301 -15.333 -5.16992 -34.3301 -11.5029 -56.9971s-17.333 -44.667 -33 -66s-37.667 -39.666 -66 -54.999s-65.166 -23 -110.499 -23c-8.66699 0 -20.667 0.666992 -36 2s-32.333 4.66602 -51 9.99902s-37.5 13.833 -56.5 25.5s-36.167 27.667 -51.5 48
s-28 46.166 -38 77.499s-15 69.666 -15 114.999c0 29.333 3.33301 60 10 92s19 61.167 37 87.5s42.667 48 74 65s71.666 25.5 120.999 25.5c36 0 67.333 -4.83301 94 -14.5s49 -22.834 67 -39.501s32.167 -35.667 42.5 -57s16.833 -44 19.5 -68h-84
c-4.66699 28 -13 50 -25 66s-25 27.667 -39 35s-27.833 11.833 -41.5 13.5s-24.167 2.5 -31.5 2.5c-27.333 0 -50.666 -5.5 -69.999 -16.5s-35 -25.833 -47 -44.5s-20.667 -40.667 -26 -66s-8 -52.333 -8 -81s3 -56 9 -82s15.167 -49 27.5 -69s28.5 -35.833 48.5 -47.5
s44 -17.5 72 -17.5c24.667 0 45.5 4.66699 62.5 14s30.833 20.833 41.5 34.5s18.334 28.667 23.001 45s7.33398 31.5 8.00098 45.5h84z" />
    <glyph glyph-name="afii10084" unicode="&#x442;" horiz-adv-x="466" 
d="M13 446v62h440v-62h-176v-446h-88v446h-176z" />
    <glyph glyph-name="afii10085" unicode="&#x443;" horiz-adv-x="498" 
d="M91 -119c13.333 -2 22.998 -3.33301 28.998 -4s11 -1 15 -1c12.667 0 23.334 2.33301 32.001 7s16 11 22 19s10.833 17.167 14.5 27.5l11.5 32.5l12 38l-220 508h105l163 -411l135 411h88l-202 -568l-14 -40.5c-5.33301 -15 -12.833 -29 -22.5 -42s-22.167 -24 -37.5 -33
s-35 -13.5 -59 -13.5c-14 0 -27.167 0.333008 -39.5 1s-23.166 2 -32.499 4v65z" />
    <glyph glyph-name="afii10086" unicode="&#x444;" horiz-adv-x="794" 
d="M441 49c45.333 0 82.1641 6.83105 110.497 20.498s50.333 30.834 66 51.501s26.334 43.334 32.001 68.001s8.5 47.667 8.5 69c0 16.667 -2.5 37 -7.5 61s-15.167 46.833 -30.5 68.5s-37.166 39.5 -65.499 53.5s-66.166 19.667 -113.499 17v-409zM352.998 457.998
c-22 1.33301 -45.668 -0.166016 -71.001 -4.49902s-48.833 -13.833 -70.5 -28.5s-39.667 -35.5 -54 -62.5s-21.5 -61.833 -21.5 -104.5c0 -46 7.66699 -82.667 23 -110s34.333 -48.333 57 -63s46.334 -24.334 71.001 -29.001s46.667 -7 66 -7v409zM352.997 -13.001
c-60 1.33301 -109.832 9.66602 -149.499 24.999s-71.5 35.5 -95.5 60.5s-40.833 53.5 -50.5 85.5s-14.5 65 -14.5 99c0 16 1.33301 33.833 4 53.5s8 39.5 16 59.5s19.167 39.333 33.5 58s33 35 56 49s51 25 84 33s71.833 11.333 116.5 10v180h88v-180
c19.333 0.666992 40.5 -0.166016 63.5 -2.49902s46 -6.83301 69 -13.5s45.167 -16.167 66.5 -28.5s40.166 -28.333 56.499 -48s29.5 -43.5 39.5 -71.5s15 -61 15 -99s-5.5 -73.167 -16.5 -105.5s-28.833 -60.5 -53.5 -84.5s-56.667 -43 -96 -57s-87.333 -21.667 -144 -23
v-172h-88v172z" />
    <glyph glyph-name="afii10087" unicode="&#x445;" horiz-adv-x="484" 
d="M372 508h98l-178 -243l192 -265h-98l-144 209l-144 -209h-98l192 265l-178 243h98l130 -188z" />
    <glyph glyph-name="afii10088" unicode="&#x446;" horiz-adv-x="596" 
d="M416 62v446h88v-446h88l-7 -194h-74v132h-439v508h88v-446h256z" />
    <glyph glyph-name="afii10089" unicode="&#x447;" horiz-adv-x="508" 
d="M133 508l-0.000976562 -156.002c0 -13.333 0.666992 -25.166 2 -35.499s5.5 -19 12.5 -26s18.333 -12.333 34 -16s37.834 -5.5 66.501 -5.5c9.33301 0 19 0.166992 29 0.5s19.667 0.833008 29 1.5c7.33301 0.666992 14.333 1 21 1h21v236h88v-508h-88v210
c-21.333 -1.33301 -40.833 -2.16602 -58.5 -2.49902s-37.5 -0.5 -59.5 -0.5c-44.667 0 -79.5 3.5 -104.5 10.5s-43.5 16.5 -55.5 28.5s-19.167 25.833 -21.5 41.5s-3.5 32.5 -3.5 50.5v170h88z" />
    <glyph glyph-name="afii10090" unicode="&#x448;" horiz-adv-x="832" 
d="M372 62v446h88v-446h212v446h88v-508h-688v508h88v-446h212z" />
    <glyph glyph-name="afii10091" unicode="&#x449;" horiz-adv-x="850" 
d="M372 62v446h88v-446h212v446h88v-446h86l-8 -194h-74v132h-692v508h88v-446h212z" />
    <glyph glyph-name="afii10092" unicode="&#x44a;" horiz-adv-x="590" 
d="M233 62l122.999 -0.000976562c11.333 0 23.833 1 37.5 3s26.334 6.33301 38.001 13s21.5 16.334 29.5 29.001s12 29.667 12 51c0 23.333 -5 41 -15 53s-22.167 20.5 -36.5 25.5s-29 7.66699 -44 8s-27.5 0.5 -37.5 0.5h-107v-183zM12.999 507.999h220.001v-201h127
c18 0 38.833 -1.16699 62.5 -3.5s46 -8.5 67 -18.5s38.667 -25.5 53 -46.5s21.5 -49.833 21.5 -86.5c0 -32 -5.33301 -58 -16 -78s-24.334 -35.5 -41.001 -46.5s-35.167 -18.333 -55.5 -22s-40.5 -5.5 -60.5 -5.5h-246v446h-132v62z" />
    <glyph glyph-name="afii10093" unicode="&#x44b;" horiz-adv-x="714" 
d="M642 508v-508h-88v508h88zM160 62l122.999 -0.00292969c10.667 0 22.834 1 36.501 3s26.5 6.33301 38.5 13s22.167 16.334 30.5 29.001s12.5 29.667 12.5 51c0 22 -4.33301 38.833 -13 50.5s-19.667 20.334 -33 26.001s-27.833 8.83398 -43.5 9.50098s-30.5 1 -44.5 1
h-107v-183zM159.999 507.997l-0.00195312 -201h128c18 0 38.667 -1.16699 62 -3.5s45.5 -8.5 66.5 -18.5s38.833 -25.5 53.5 -46.5s22 -49.833 22 -86.5c0 -19.333 -2.66699 -38 -8 -56s-14.666 -34.167 -27.999 -48.5s-31.166 -25.833 -53.499 -34.5s-50.5 -13 -84.5 -13
h-246v508h88z" />
    <glyph glyph-name="afii10094" unicode="&#x44c;" horiz-adv-x="514" 
d="M160 62l122 0.000976562c28.667 0 51 3.66699 67 11s27.667 16.166 35 26.499s11.833 20.833 13.5 31.5s2.5 19.667 2.5 27c0 23.333 -4.83301 40.833 -14.5 52.5s-21.5 20 -35.5 25s-28.667 7.66699 -44 8s-28.333 0.5 -39 0.5h-107v-182zM160 508.001v-201.999h127
c18.667 0 39.834 -1.16699 63.501 -3.5s46 -8.5 67 -18.5s38.5 -24.833 52.5 -44.5s21 -46.834 21 -81.501c0 -38 -7 -67.667 -21 -89s-30.5 -37 -49.5 -47s-38.333 -16.167 -58 -18.5s-34.834 -3.5 -45.501 -3.5h-245v508h88z" />
    <glyph glyph-name="afii10095" unicode="&#x44d;" horiz-adv-x="553" 
d="M198 295l219.004 0.000976562c-1.33301 39.333 -7.83301 70.333 -19.5 93s-25.167 39.834 -40.5 51.501s-30.833 19 -46.5 22s-28.167 4.5 -37.5 4.5c-46 0 -81.5 -11.333 -106.5 -34s-38.833 -50.334 -41.5 -83.001h-84c4.66699 42.667 16.667 76 36 100
s40.666 41.833 63.999 53.5s46.5 18.834 69.5 21.501s40.833 4 53.5 4c22.667 0 48.167 -2.66699 76.5 -8s55 -17.5 80 -36.5s46.167 -47 63.5 -84s26 -86.833 26 -149.5c0 -58 -7.66699 -104.667 -23 -140s-34.833 -62.666 -58.5 -81.999s-49.667 -32.166 -78 -38.499
s-55.5 -9.5 -81.5 -9.5c-17.333 0 -37.833 1.33301 -61.5 4s-47 10.5 -70 23.5s-43.833 32.5 -62.5 58.5s-31.334 62.667 -38.001 110h84c5.33301 -44 20 -77.333 44 -100s58.667 -34 104 -34c23.333 0 43.166 3.66699 59.499 11s30 16.666 41 27.999
s19.667 24.166 26 38.499s11.166 28.666 14.499 42.999s5.33301 27.666 6 39.999s1 22.5 1 30.5h-219v62z" />
    <glyph glyph-name="afii10096" unicode="&#x44e;" horiz-adv-x="780" 
d="M333 255c0 -19.333 1.66797 -41.3311 5.00098 -65.998s10.5 -47.834 21.5 -69.501s26.833 -40 47.5 -55s48 -22.5 82 -22.5c25.333 0 46.666 4.33301 63.999 13s31.833 19.667 43.5 33s20.667 28.166 27 44.499s11 32.5 14 48.5s4.83301 30.667 5.5 44s1 23.333 1 30
c0 10.667 -1 27.667 -3 51s-8 46.833 -18 70.5s-25.333 44.5 -46 62.5s-50 27 -88 27c-9.33301 0 -22.833 -1.5 -40.5 -4.5s-35 -11.333 -52 -25s-31.833 -34.667 -44.5 -63s-19 -67.833 -19 -118.5zM240.001 299.002c2.66699 27.333 9.16602 54.6641 19.499 81.9971
s25.333 51.833 45 73.5s44.5 39.334 74.5 53.001s66 20.5 108 20.5c32.667 0 64 -5 94 -15s56.5 -25.833 79.5 -47.5s41.5 -49.834 55.5 -84.501s21 -76.667 21 -126c0 -45.333 -5.5 -83.666 -16.5 -114.999s-25 -57.166 -42 -77.499s-35.5 -36.166 -55.5 -47.499
s-39.167 -19.5 -57.5 -24.5s-34.5 -8 -48.5 -9s-23.333 -1.5 -28 -1.5c-47.333 0 -86.666 8.16699 -117.999 24.5s-56.333 37 -75 62s-32.167 52.667 -40.5 83s-13.5 59.5 -15.5 87.5h-80v-237h-88v508h88v-209h80z" />
    <glyph glyph-name="afii10097" unicode="&#x44f;" horiz-adv-x="543" 
d="M256 446c-8.66699 0 -19.668 -0.498047 -33.001 -1.49805s-26.333 -4.5 -39 -10.5s-23.5 -15.5 -32.5 -28.5s-13.5 -31.167 -13.5 -54.5c0 -9.33301 1.66699 -19.333 5 -30s9.5 -20.334 18.5 -29.001s21.333 -15.834 37 -21.501s35.834 -8.5 60.501 -8.5h124v184h-127z
M133.999 0.00195312l-96.998 0.000976562l140 201c-17.333 2 -33.833 6.5 -49.5 13.5s-29.5 16.667 -41.5 29s-21.5 27.166 -28.5 44.499s-10.5 37.333 -10.5 60c0 16 2.16699 33.333 6.5 52s12.666 36 24.999 52s29.666 29.333 51.999 40s51.5 16 87.5 16h253v-508h-88v200
h-116z" />
    <glyph glyph-name="afii10071" unicode="&#x451;" horiz-adv-x="572" 
d="M365 700h88v-92h-88v92zM131 700h88v-92h-88v92zM436 296c-3.33301 32 -8.83398 58.833 -16.501 80.5s-17.334 39.167 -29.001 52.5s-25.667 22.833 -42 28.5s-34.833 8.5 -55.5 8.5c-32 0 -58.167 -6.16699 -78.5 -18.5s-36.166 -27.166 -47.499 -44.499
s-19.166 -35.833 -23.499 -55.5s-6.83301 -36.834 -7.5 -51.501h300zM519.999 147c-4 -17.333 -10.3281 -35.8379 -18.9951 -55.5049s-21.334 -37.667 -38.001 -54s-38.334 -30 -65.001 -41s-59.667 -16.5 -99 -16.5c-49.333 0 -90.333 7.83301 -123 23.5
s-58.834 36.334 -78.501 62.001s-33.667 54.667 -42 87s-12.5 65.5 -12.5 99.5c0 30.667 3.16699 62.334 9.5 95.001s18.5 62.334 36.5 89.001s42.667 48.667 74 66s72 26 122 26c80.667 0 141.5 -22.667 182.5 -68s61.5 -112.333 61.5 -201v-25h-393c0 -22 3 -44.333 9 -67
s15.167 -43.167 27.5 -61.5s28.666 -33.5 48.999 -45.5s45.166 -18 74.499 -18c12 0 24.833 1.16699 38.5 3.5s27 7.33301 40 15s25 18.334 36 32.001s19.5 31.834 25.5 54.501h84z" />
    <glyph glyph-name="afii10099" unicode="&#x452;" horiz-adv-x="584" 
d="M168 700l-0.00195312 -63h211v-62h-211v-158c22.667 32 47.5 55.167 74.5 69.5s57.833 21.5 92.5 21.5c40.667 0 73.334 -7.16699 98.001 -21.5s43.667 -35.166 57 -62.499s22 -60.833 26 -100.5s6 -84.5 6 -134.5c0 -42.667 -1.5 -86 -4.5 -130s-11.833 -84 -26.5 -120
s-37.5 -65.5 -68.5 -88.5s-74.5 -34.833 -130.5 -35.5v65h22c29.333 0 51.833 9.5 67.5 28.5s27 43.5 34 73.5s11 63.167 12 99.5s1.5 71.5 1.5 105.5s-0.5 66.5 -1.5 97.5s-5.16699 58.5 -12.5 82.5s-18.833 43.167 -34.5 57.5s-38.5 21.5 -68.5 21.5
c-34.667 0 -61.667 -6.83301 -81 -20.5s-33.666 -30.167 -42.999 -49.5s-15 -39.833 -17 -61.5s-3 -40.834 -3 -57.501v-257h-88v575h-80v62h80v63h88z" />
    <glyph glyph-name="afii10100" unicode="&#x453;" horiz-adv-x="433" 
d="M330 700l-96 -132h-80l70 132h106zM160 0h-88v508h348v-62h-260v-446z" />
    <glyph glyph-name="afii10101" unicode="&#x454;" horiz-adv-x="554" 
d="M369 233l-233.003 -0.00195312c0.666992 -42 6.16699 -75.5 16.5 -100.5s22.833 -44.333 37.5 -58s30.5 -22.5 47.5 -26.5s32.833 -6 47.5 -6s30 1.66699 46 5s31 9.83301 45 19.5s26.167 23.334 36.5 41.001s17.166 40.834 20.499 69.501h84
c-1.33301 -18.667 -5.5 -39.334 -12.5 -62.001s-19 -44 -36 -64s-40.167 -36.833 -69.5 -50.5s-67 -20.5 -113 -20.5c-11.333 0 -25 0.666992 -41 2s-33 4.83301 -51 10.5s-36 14 -54 25s-34.167 26.5 -48.5 46.5s-26 45.167 -35 75.5s-13.5 67.166 -13.5 110.499
c0 42 4 78.167 12 108.5s18.5 55.666 31.5 75.999s27.833 36.666 44.5 48.999s33.834 21.833 51.501 28.5s35.334 11 53.001 13s33.5 3 47.5 3c46 0 83.667 -6.16699 113 -18.5s52.333 -27.666 69 -45.999s28.334 -37.833 35.001 -58.5s10.667 -39.334 12 -56.001h-84
c0 20 -4.5 37.333 -13.5 52s-20.667 26.834 -35 36.501s-30.666 16.834 -48.999 21.501s-36.833 7 -55.5 7c-15.333 0 -30.833 -2.33301 -46.5 -7s-30.167 -13.167 -43.5 -25.5s-24.5 -29.666 -33.5 -51.999s-14.167 -51.166 -15.5 -86.499h233v-62z" />
    <glyph glyph-name="afii10102" unicode="&#x455;" horiz-adv-x="506" 
d="M124 151c0.666992 -20 5.00293 -37.001 13.0029 -51.001s18.5 -25.333 31.5 -34s27.667 -14.834 44 -18.501s32.833 -5.5 49.5 -5.5c29.333 0 52 4 68 12s27.667 17.333 35 28s11.5 21.334 12.5 32.001s1.5 18.667 1.5 24c0 8 -1 15.833 -3 23.5s-6.5 15 -13.5 22
s-17.5 13.833 -31.5 20.5s-33.333 13 -58 19c-20.667 4.66699 -43.5 9.33398 -68.5 14.001s-48.333 12 -70 22s-39.834 24.5 -54.501 43.5s-22 45.5 -22 79.5c0 28 5.66699 51.5 17 70.5s26.333 34 45 45s39.334 18.833 62.001 23.5s45.667 7 69 7
c43.333 0 78.166 -5.33301 104.499 -16s46.833 -23.834 61.5 -39.501s24.667 -32.334 30 -50.001s8.66602 -33.5 9.99902 -47.5h-84c-0.666992 7.33301 -2.5 16.166 -5.5 26.499s-8.66699 20.333 -17 30s-20.166 17.834 -35.499 24.501s-35.666 10 -60.999 10
c-2.66699 0 -9.66699 -0.333008 -21 -1s-23.166 -3.5 -35.499 -8.5s-23.5 -13 -33.5 -24s-15 -26.5 -15 -46.5c0 -18 3.66699 -32.167 11 -42.5s17.166 -18.5 29.499 -24.5s27.166 -10.833 44.499 -14.5s36 -7.83398 56 -12.501c25.333 -6 49 -12.167 71 -18.5
s41 -14.666 57 -24.999s28.667 -23.833 38 -40.5s14 -38 14 -64c0 -26.667 -4.66699 -49.167 -14 -67.5s-21 -33.666 -35 -45.999s-29.5 -21.833 -46.5 -28.5s-33.333 -11.667 -49 -15s-29.334 -5.33301 -41.001 -6s-19.5 -1 -23.5 -1c-38 0 -70.833 4.5 -98.5 13.5
s-50.834 21.333 -69.501 37s-32.667 33.834 -42 54.501s-14.333 42.667 -15 66h88z" />
    <glyph glyph-name="afii10103" unicode="&#x456;" horiz-adv-x="228" 
d="M70 700h88v-92h-88v92zM158 508v-508h-88v508h88z" />
    <glyph glyph-name="afii10104" unicode="&#x457;" horiz-adv-x="273" 
d="M162 700h88v-92h-88v92zM23 700h89v-92h-89v92zM181 508v-508h-89v508h89z" />
    <glyph glyph-name="afii10105" unicode="&#x458;" horiz-adv-x="231" 
d="M73 700h88v-92h-88v92zM161 508l0.000976562 -555.001c0 -22.667 -1.83301 -42.834 -5.5 -60.501s-10 -32.5 -19 -44.5s-21.333 -21.167 -37 -27.5s-35.167 -9.5 -58.5 -9.5c-8.66699 0 -18.834 0.5 -30.501 1.5s-20.5 1.83301 -26.5 2.5v62c23.333 4 41 7.66699 53 11
s20.667 7.83301 26 13.5s8.33301 13.334 9 23.001s1 22.834 1 39.501v544h88z" />
    <glyph glyph-name="afii10106" unicode="&#x459;" horiz-adv-x="843" 
d="M488 62l123 0.000976562c25.333 0 45.666 3 60.999 9s27.333 13.667 36 23s14.334 19.666 17.001 30.999s4 22.333 4 33c0 18.667 -3.5 33.667 -10.5 45s-16.667 20.333 -29 27s-26.5 11.167 -42.5 13.5s-33 3.5 -51 3.5h-108v-185zM13 65.001
c3.33301 -0.666992 6.5 -1.16895 9.5 -1.50195s6.16699 -0.5 9.5 -0.5c24 0 42.833 6.66699 56.5 20s24 31.5 31 54.5s11.333 50 13 81s2.5 63.833 2.5 98.5v191h353v-199h128c18.667 0 39.834 -1.16699 63.501 -3.5s45.834 -8.66602 66.501 -18.999s38.167 -26 52.5 -47
s21.5 -50.167 21.5 -87.5c0 -36 -6.66699 -64.167 -20 -84.5s-29.333 -35.5 -48 -45.5s-37.834 -16.167 -57.501 -18.5s-35.834 -3.5 -48.501 -3.5h-246v446h-182v-129c0 -39.333 -1 -78.166 -3 -116.499s-8.5 -72.5 -19.5 -102.5s-28 -54.333 -51 -73
s-55.167 -28 -96.5 -28c-11.333 0 -23 1 -35 3v65z" />
    <glyph glyph-name="afii10107" unicode="&#x45a;" horiz-adv-x="855" 
d="M500 62h123c8 0 18.667 0.666992 32 2s26.333 5 39 11s23.667 15.5 33 28.5s14 31.167 14 54.5s-5.16699 41 -15.5 53s-22.833 20.5 -37.5 25.5s-29.5 7.66699 -44.5 8s-26.833 0.5 -35.5 0.5h-108v-183zM160 0h-88.0029v508h88v-201h252v201h88v-201h127h29.5
c13 0 27.167 -1.16699 42.5 -3.5s30.833 -6.33301 46.5 -12s29.834 -14.334 42.501 -26.001s23.167 -26.667 31.5 -45s12.5 -41.166 12.5 -68.499c0 -28 -4.33301 -51.667 -13 -71s-20.667 -35 -36 -47s-33.666 -20.667 -54.999 -26s-44.666 -8 -69.999 -8h-246v245h-252
v-245z" />
    <glyph glyph-name="afii10108" unicode="&#x45b;" 
d="M168 700l0.00292969 -63h211v-62h-211v-158c23.333 32 49.166 55.167 77.499 69.5s60.5 21.5 96.5 21.5c42 0 74.167 -7.83301 96.5 -23.5s38.666 -34 48.999 -55s16.333 -42 18 -63s2.5 -37.167 2.5 -48.5v-318h-88v291c0 10 -0.166992 23.667 -0.5 41
s-3.66602 34.5 -9.99902 51.5s-16.833 31.667 -31.5 44s-36.334 18.5 -65.001 18.5c-24 0 -44.333 -3.83301 -61 -11.5s-30.334 -17.5 -41.001 -29.5s-19 -25.333 -25 -40s-10.333 -29 -13 -43s-4.16699 -26.833 -4.5 -38.5s-0.5 -20.5 -0.5 -26.5v-257h-88v575h-80v62h80
v63h88z" />
    <glyph glyph-name="afii10109" unicode="&#x45c;" horiz-adv-x="489" 
d="M358 700l-96 -132h-80l70 132h106zM377 508h103l-238 -236l251 -272h-105l-228 254v-254h-88v508h88v-222z" />
    <glyph glyph-name="afii10110" unicode="&#x45e;" horiz-adv-x="498" 
d="M151 700c1.33301 -20 9.66992 -38.167 25.0029 -54.5s39.666 -24.5 72.999 -24.5s57.666 8.16699 72.999 24.5s23.666 34.5 24.999 54.5h74c-2 -13.333 -6.33301 -27.666 -13 -42.999s-16.667 -29.666 -30 -42.999s-30.5 -24.333 -51.5 -33s-46.833 -13 -77.5 -13
c-31.333 0 -57.333 4.33301 -78 13s-37.667 19.667 -51 33s-23.333 27.666 -30 42.999s-11 29.666 -13 42.999h74zM91.0039 -119c13.333 -2 22.998 -3.33301 28.998 -4s11 -1 15 -1c12.667 0 23.334 2.33301 32.001 7s16 11 22 19s10.833 17.167 14.5 27.5l11.5 32.5l12 38
l-220 508h105l163 -411l135 411h88l-202 -568l-14 -40.5c-5.33301 -15 -12.833 -29 -22.5 -42s-22.167 -24 -37.5 -33s-35 -13.5 -59 -13.5c-14 0 -27.167 0.333008 -39.5 1s-23.166 2 -32.499 4v65z" />
    <glyph glyph-name="afii10193" unicode="&#x45f;" horiz-adv-x="578" 
d="M418 508h88v-508h-178v-185h-78v185h-178v508h88v-446h258v446z" />
    <glyph glyph-name="afii10050" unicode="&#x490;" horiz-adv-x="549" 
d="M179 0h-94v700h357v158h87l7 -237h-357v-621z" />
    <glyph glyph-name="afii10098" unicode="&#x491;" horiz-adv-x="433" 
d="M160 0h-88v508h266v133h73l9 -195h-260v-446z" />
    <glyph glyph-name="endash" unicode="&#x2013;" horiz-adv-x="600" 
d="M550 297v-62h-500v62h500z" />
    <glyph glyph-name="emdash" unicode="&#x2014;" horiz-adv-x="984" 
d="M50 297h884v-62h-884v62z" />
    <glyph glyph-name="quoteleft" unicode="&#x2018;" horiz-adv-x="311" 
d="M106 462v139.998c0 20 3.33301 37 10 51s15 25.5 25 34.5s20.667 16 32 21s22 8.5 32 10.5v-55c-14 -1.33301 -25.833 -8.16602 -35.5 -20.499s-14.5 -26.166 -14.5 -41.499v-31h50v-109h-99z" />
    <glyph glyph-name="quoteright" unicode="&#x2019;" horiz-adv-x="311" 
d="M205 700v-139.998c0 -20 -3.33301 -37 -10 -51s-15 -25.5 -25 -34.5s-20.667 -16 -32 -21s-22 -8.5 -32 -10.5v55c14 1.33301 25.833 8.16602 35.5 20.499s14.5 26.166 14.5 41.499v31h-50v109h99z" />
    <glyph glyph-name="quotesinglbase" unicode="&#x201a;" horiz-adv-x="311" 
d="M205 109v-139.998c0 -20 -3.33301 -37 -10 -51s-15 -25.5 -25 -34.5s-20.667 -16 -32 -21s-22 -8.5 -32 -10.5v55c14 1.33301 25.833 8.16602 35.5 20.499s14.5 26.166 14.5 41.499v31h-50v109h99z" />
    <glyph glyph-name="quotedblleft" unicode="&#x201c;" horiz-adv-x="422" 
d="M79 462v141.002c0 17.333 2.83301 32.666 8.5 45.999s13 24.833 22 34.5s19.5 17.5 31.5 23.5s24.333 10.333 37 13v-54c-13.333 -4 -25 -11.333 -35 -22s-15 -24.334 -15 -41.001v-32h50v-109h-99zM244 462.002v140.999c0 16.667 2.83301 31.834 8.5 45.501
s13 25.334 22 35.001s19.5 17.5 31.5 23.5s24.333 10.333 37 13v-54c-13.333 -4 -25 -11.333 -35 -22s-15 -24.334 -15 -41.001v-32h50v-109h-99z" />
    <glyph glyph-name="quotedblright" unicode="&#x201d;" horiz-adv-x="422" 
d="M343 700v-141.002c0 -17.333 -2.83301 -32.666 -8.5 -45.999s-13 -24.833 -22 -34.5s-19.5 -17.5 -31.5 -23.5s-24.333 -10.333 -37 -13v54c13.333 4 25 11.333 35 22s15 24.334 15 41.001v32h-50v109h99zM178 699.998v-141.002c0 -17.333 -2.83301 -32.666 -8.5 -45.999
s-13 -24.833 -22 -34.5s-19.5 -17.5 -31.5 -23.5s-24.333 -10.333 -37 -13v54c13.333 4 25 11.333 35 22s15 24.334 15 41.001v32h-50v109h99z" />
    <glyph glyph-name="quotedblbase" unicode="&#x201e;" horiz-adv-x="422" 
d="M343 109l0.000976562 -139.999c0 -32 -8.33301 -57.333 -25 -76s-41.334 -32.334 -74.001 -41.001v55c14 2.66699 25.833 9.66699 35.5 21s14.5 25 14.5 41v31h-50v109h99zM178.001 109.001l-0.000976562 -140.001c0 -32 -8.16699 -57.167 -24.5 -75.5
s-41.166 -32.166 -74.499 -41.499v55c14 2.66699 25.833 9.66699 35.5 21s14.5 25 14.5 41v31h-50v109h99z" />
    <glyph glyph-name="dagger" unicode="&#x2020;" horiz-adv-x="500" 
d="M290 700v-192h185v-68h-185v-625h-80v625h-185v68h185v192h80z" />
    <glyph glyph-name="daggerdbl" unicode="&#x2021;" horiz-adv-x="500" 
d="M290 700v-192h185v-68h-185v-192h185v-68h-185v-365h-80v365h-185v68h185v192h-185v68h185v192h80z" />
    <glyph glyph-name="bullet" unicode="&#x2022;" horiz-adv-x="600" 
d="M200 350c0 14 2.5 27 7.5 39s12 22.5 21 31.5s19.667 16.167 32 21.5s25.5 8 39.5 8s27 -2.66699 39 -8s22.5 -12.5 31.5 -21.5s16.167 -19.5 21.5 -31.5s8 -25 8 -39s-2.66699 -27.167 -8 -39.5s-12.5 -23 -21.5 -32s-19.5 -16 -31.5 -21s-25 -7.5 -39 -7.5
s-27.167 2.5 -39.5 7.5s-23 12 -32 21s-16 19.667 -21 32s-7.5 25.5 -7.5 39.5z" />
    <glyph glyph-name="ellipsis" unicode="&#x2026;" horiz-adv-x="931" 
d="M726 109h99v-109h-99v109zM416 109h99v-109h-99v109zM106 109h99v-109h-99v109z" />
    <glyph glyph-name="perthousand" unicode="&#x2030;" horiz-adv-x="1298" 
d="M981 192c0 -29.333 3.33301 -53.3311 10 -71.998s15 -33.667 25 -45s20.833 -19.166 32.5 -23.499s22.5 -6.5 32.5 -6.5s20.833 2.16699 32.5 6.5s22.5 12.166 32.5 23.499s18.333 26.333 25 45s10 42.667 10 72c0 16.667 -1.66699 33.667 -5 51
s-8.83301 33.166 -16.5 47.499s-18 26 -31 35s-28.833 13.5 -47.5 13.5c-22 0 -39.5 -5.5 -52.5 -16.5s-23 -24.333 -30 -40s-11.667 -31.834 -14 -48.501s-3.5 -30.667 -3.5 -42zM917 192.002c0 18 2.33398 38.668 7.00098 62.001s13 45.166 25 65.499s28.667 37.5 50 51.5
s48.666 21 81.999 21c50.667 0 90.667 -17.667 120 -53s44 -84.333 44 -147c0 -41.333 -5.83301 -75 -17.5 -101s-26 -46.333 -43 -61s-35 -24.667 -54 -30s-35.5 -8 -49.5 -8c-13.333 0 -29.5 2.66699 -48.5 8s-37 15.333 -54 30s-31.5 35 -43.5 61s-18 59.667 -18 101z
M594.001 192.003c0 -27.333 3.16504 -50.335 9.49805 -69.002s14.333 -33.834 24 -45.501s20.334 -20 32.001 -25s23.167 -7.5 34.5 -7.5c12 0 23.833 2.5 35.5 7.5s22.334 13.333 32.001 25s17.5 26.834 23.5 45.501s9 41.667 9 69c0 19.333 -1.83301 37.833 -5.5 55.5
s-9.5 33.334 -17.5 47.001s-18.333 24.5 -31 32.5s-28 12 -46 12c-22.667 0 -40.667 -6 -54 -18s-23.333 -26.167 -30 -42.5s-11 -32.666 -13 -48.999s-3 -28.833 -3 -37.5zM529.999 192.001c0 14 1.83008 32.332 5.49707 54.999s11.334 44.834 23.001 66.501
s28.334 40.167 50.001 55.5s50.167 23 85.5 23c50.667 0 90.667 -17.667 120 -53s44 -84.333 44 -147c0 -41.333 -5.83301 -75 -17.5 -101s-26 -46.333 -43 -61s-35 -24.667 -54 -30s-35.5 -8 -49.5 -8c-16 0 -33.667 3.16699 -53 9.5s-37.166 17.166 -53.499 32.499
s-30 35.833 -41 61.5s-16.5 57.834 -16.5 96.501zM116.996 508c0 -11.333 1.16992 -25.3301 3.50293 -41.9971s7.16602 -32.834 14.499 -48.501s17.666 -29 30.999 -40s30.666 -16.5 51.999 -16.5c22 0 39.5 5.5 52.5 16.5s23 24.167 30 39.5s11.667 31.5 14 48.5
s3.5 31.167 3.5 42.5c0 28.667 -3.33301 52.5 -10 71.5s-15 34.167 -25 45.5s-20.833 19.166 -32.5 23.499s-22.5 6.5 -32.5 6.5c-13.333 0 -26 -3 -38 -9s-22.667 -15 -32 -27s-16.833 -27.333 -22.5 -46s-8.5 -40.334 -8.5 -65.001zM52.999 508.003
c0 41.333 5.99707 75 17.9971 101s26.667 46.333 44 61s35.333 24.667 54 30s35 8 49 8c13.333 0 29.5 -2.66699 48.5 -8s37 -15.333 54 -30s31.5 -35 43.5 -61s18 -59.667 18 -101c0 -18 -2.33301 -38.5 -7 -61.5s-13 -44.833 -25 -65.5s-28.667 -38 -50 -52
s-48.666 -21 -81.999 -21c-34 0 -61.667 7 -83 21s-38.166 31.333 -50.499 52s-20.666 42.5 -24.999 65.5s-6.5 43.5 -6.5 61.5zM649.996 700.003h71l-454 -700h-71z" />
    <glyph glyph-name="numero" unicode="&#x2116;" horiz-adv-x="1118" 
d="M743 74h304v-74h-304v74zM808 342c0 -40 8.16602 -70.498 24.499 -91.498s37.166 -31.5 62.499 -31.5c18.667 0 33.667 4.66699 45 14s20.166 20.666 26.499 33.999s10.5 26.833 12.5 40.5s3 25.167 3 34.5c0 8.66699 -1.16699 20 -3.5 34s-6.66602 27.667 -12.999 41
s-15.166 24.666 -26.499 33.999s-26 14 -44 14c-25.333 0 -46.166 -10.5 -62.499 -31.5s-24.5 -51.5 -24.5 -91.5zM729.999 342.002c0 17.333 2.33496 36.666 7.00195 57.999s13.167 41.5 25.5 60.5s29.166 35 50.499 48s48.666 19.5 81.999 19.5c50 0 90 -16.167 120 -48.5
s45 -78.166 45 -137.499c0 -29.333 -3.5 -54.333 -10.5 -75s-15.833 -37.834 -26.5 -51.501s-22.334 -24.5 -35.001 -32.5s-25.167 -14 -37.5 -18s-23.5 -6.5 -33.5 -7.5s-17.333 -1.5 -22 -1.5c-13.333 0 -29.333 2.33301 -48 7s-36.667 13.834 -54 27.501
s-32.166 32.5 -44.499 56.5s-18.5 55.667 -18.5 95zM179.001 0.00195312h-94v700h104l372 -555v555h94v-700h-103l-373 555v-555z" />
    <glyph glyph-name="trademark" unicode="&#x2122;" horiz-adv-x="861" 
d="M475 618h-5l4 -45v-223h-75v350h100l94 -241l9 -35h4l8 35l94 241h100v-350h-75v223l4 45h-5l-103 -268h-52zM20 645v55h301v-55h-113v-295h-75v295h-113z" />
    <glyph glyph-name=".null" horiz-adv-x="0" 
 />
    <glyph glyph-name="nonmarkingreturn" horiz-adv-x="233" 
 />
    <glyph glyph-name="hyphenminus" horiz-adv-x="422" 
d="M79 310h264v-85h-264v85z" />
    <glyph glyph-name="quilsinglleft" horiz-adv-x="286" 
d="M211 182v-82l-149 131v82l149 131v-82l-106 -90z" />
    <glyph glyph-name="quilsinglright" horiz-adv-x="286" 
d="M75 362v82l149 -131v-82l-149 -131v82l106 90z" />
    <glyph glyph-name="afii10055" horiz-adv-x="264" 
d="M179 700v-700h-94v700h94z" />
  </font>
</defs>
</svg>
